<svg width="340" height="110" viewBox="0 0 340 110" fill="none" xmlns="http://www.w3.org/2000/svg">
<path d="M23.552 22.048C25.3867 22.1333 27.136 22.3893 28.8 22.816C30.464 23.2 31.9147 23.7973 33.152 24.608C34.432 25.4187 35.4347 26.464 36.16 27.744C36.928 29.024 37.312 30.56 37.312 32.352C37.312 34.4 36.9067 36.1707 36.096 37.664C35.2853 39.1147 34.1333 40.3093 32.64 41.248C31.1893 42.1867 29.44 42.8907 27.392 43.36C25.344 43.7867 23.0827 44 20.608 44H9.92C9.70667 44.0427 9.472 44.064 9.216 44.064C9.00267 44.1067 8.768 44.128 8.512 44.128C7.65867 44.0427 6.89067 43.8293 6.208 43.488C5.61067 43.1893 5.07733 42.7413 4.608 42.144C4.13867 41.504 3.904 40.608 3.904 39.456C3.81867 39.0293 3.86133 38.6027 4.032 38.176C4.16 37.8347 4.39467 37.4933 4.736 37.152C5.07733 36.8107 5.61067 36.576 6.336 36.448C6.93333 36.3627 7.488 36.4053 8 36.576C8.46933 36.704 8.91733 36.96 9.344 37.344C9.77067 37.6853 10.1333 38.2827 10.432 39.136C10.56 39.52 10.7733 39.776 11.072 39.904C11.3707 39.9893 11.6907 39.9893 12.032 39.904C12.3733 39.8187 12.6507 39.648 12.864 39.392C13.12 39.0933 13.248 38.7307 13.248 38.304C13.248 37.3653 13.056 36.64 12.672 36.128C12.3307 35.5733 11.904 35.104 11.392 34.72C10.9227 34.2933 10.4107 33.9093 9.856 33.568C9.30133 33.184 8.768 32.6933 8.256 32.096C7.78667 31.456 7.40267 30.6667 7.104 29.728C6.848 28.7467 6.74133 27.4667 6.784 25.888C6.86933 23.712 6.89067 21.536 6.848 19.36C6.848 17.184 6.848 15.2 6.848 13.408C6.80533 11.36 6.784 9.35467 6.784 7.392C6.69867 6.96533 6.67733 6.58133 6.72 6.24C6.76267 5.94133 6.82667 5.68533 6.912 5.472C7.04 5.25866 7.232 5.17333 7.488 5.216C7.78667 5.25867 8.04267 5.152 8.256 4.896C8.46933 4.64 8.576 4.34133 8.576 4C8.61867 3.616 8.53333 3.25333 8.32 2.912C8.14933 2.57066 7.808 2.35733 7.296 2.272C6.912 2.18666 6.54933 2.18666 6.208 2.272C5.90933 2.35733 5.632 2.54933 5.376 2.848C5.16267 3.104 5.03467 3.53067 4.992 4.128C5.07733 4.72533 5.07733 5.25866 4.992 5.728C4.90667 6.15467 4.736 6.53867 4.48 6.88C4.224 7.22133 3.776 7.37067 3.136 7.328C2.32533 7.28533 1.728 6.96533 1.344 6.368C1.00267 5.728 1.024 4.81066 1.408 3.616C1.664 2.93333 2.112 2.35733 2.752 1.888C3.30667 1.46133 4.07467 1.09866 5.056 0.799999C6.03733 0.501331 7.33867 0.394665 8.96 0.48C9.6 0.48 10.24 0.522666 10.88 0.607998C11.4347 0.69333 11.9893 0.842664 12.544 1.056C13.1413 1.22666 13.6747 1.52533 14.144 1.952H20.224C22.0587 1.952 23.8507 2.05867 25.6 2.272C27.392 2.48533 28.992 2.95466 30.4 3.68C31.808 4.36266 32.9387 5.344 33.792 6.624C34.6453 7.904 35.072 9.58933 35.072 11.68C35.072 13.3867 34.7733 14.8373 34.176 16.032C33.5787 17.2267 32.7467 18.2293 31.68 19.04C30.656 19.808 29.44 20.4267 28.032 20.896C26.624 21.3653 25.1307 21.7493 23.552 22.048ZM15.36 20.768H18.56C21.248 20.768 23.2107 19.9787 24.448 18.4C25.728 16.7787 26.368 14.7093 26.368 12.192C26.368 9.888 25.8347 7.98933 24.768 6.496C23.744 5.00266 21.952 4.256 19.392 4.256C18.7093 4.256 17.984 4.29866 17.216 4.384C16.448 4.46933 15.8293 4.576 15.36 4.704V20.768ZM18.688 41.696C20.5653 41.696 22.1227 41.44 23.36 40.928C24.5973 40.416 25.5787 39.7333 26.304 38.88C27.072 38.0267 27.6053 37.0667 27.904 36C28.2027 34.9333 28.352 33.8453 28.352 32.736C28.352 29.8347 27.52 27.5733 25.856 25.952C24.192 24.288 21.6533 23.456 18.24 23.456H15.36V41.184C15.872 41.3973 16.4267 41.5467 17.024 41.632C17.664 41.6747 18.2187 41.696 18.688 41.696ZM69.4475 36.96C70.3435 38.496 70.6635 39.7333 70.4075 40.672C70.1515 41.568 69.6608 42.272 68.9355 42.784C68.1248 43.3813 67.0582 43.808 65.7355 44.064C64.0288 44.064 62.6848 43.744 61.7035 43.104C60.7222 42.4213 59.9755 41.6747 59.4635 40.864C58.8662 39.9253 58.4608 38.8373 58.2475 37.6V20.064C58.3328 18.4853 58.1835 17.2907 57.7995 16.48C57.4582 15.6267 57.0528 15.0293 56.5835 14.688C56.0715 14.2613 55.4528 14.048 54.7275 14.048C53.2768 14.0907 52.1888 14.4533 51.4635 15.136C50.7382 15.8187 50.2048 16.5867 49.8635 17.44C49.4795 18.4213 49.2662 19.5307 49.2235 20.768C49.2235 21.2373 49.0102 21.5787 48.5835 21.792C48.1568 22.0053 47.7088 22.1547 47.2395 22.24C46.6848 22.3253 46.0448 22.3467 45.3195 22.304C44.3382 22.2613 43.5915 22.0907 43.0795 21.792C42.6102 21.4933 42.2688 21.1733 42.0555 20.832C41.8848 20.448 41.7995 20.1067 41.7995 19.808C41.7995 19.5093 41.7995 19.3173 41.7995 19.232C42.0128 18.208 42.4182 17.312 43.0155 16.544C43.6128 15.776 44.3168 15.136 45.1275 14.624C45.9382 14.0693 46.8128 13.6427 47.7515 13.344C48.7328 13.0027 49.7142 12.7467 50.6955 12.576C52.9995 12.1493 55.5168 12.0213 58.2475 12.192C60.0822 12.4053 61.5328 12.8107 62.5995 13.408C63.6662 13.9627 64.4768 14.5387 65.0315 15.136C65.6715 15.8613 66.0982 16.608 66.3115 17.376V32.544C66.3542 33.3547 66.3115 33.952 66.1835 34.336C66.0555 34.6773 65.9062 34.912 65.7355 35.04C65.5648 35.2107 65.3302 35.232 65.0315 35.104C64.2635 35.0187 63.6875 35.0827 63.3035 35.296C62.9195 35.4667 62.6208 35.6587 62.4075 35.872C62.1942 36.128 62.0662 36.448 62.0235 36.832C62.0235 37.7707 62.1728 38.3467 62.4715 38.56C62.7702 38.7307 63.1115 38.752 63.4955 38.624C63.9648 38.4533 64.4768 38.112 65.0315 37.6C65.7568 36.9173 66.3755 36.512 66.8875 36.384C67.4422 36.2133 67.9115 36.1707 68.2955 36.256C68.7648 36.384 69.1488 36.6187 69.4475 36.96ZM52.6795 34.784C53.8742 34.4427 54.7702 34.464 55.3675 34.848C55.9648 35.232 56.3702 35.7227 56.5835 36.32C56.8395 37.0453 56.9462 37.92 56.9035 38.944C56.8182 39.4987 56.6688 39.968 56.4555 40.352C56.2422 40.6933 55.9862 40.9707 55.6875 41.184C55.3462 41.44 54.9835 41.6747 54.5995 41.888C52.8502 42.8693 51.2502 43.424 49.7995 43.552C48.3488 43.68 47.1115 43.616 46.0875 43.36C44.8502 43.0613 43.7622 42.5707 42.8235 41.888C41.7995 40.9493 41.2022 39.9253 41.0315 38.816C40.9035 37.7067 41.0528 36.5547 41.4795 35.36C41.9488 34.1227 42.6315 32.8853 43.5275 31.648C44.4235 30.4107 45.4262 29.216 46.5355 28.064C49.1382 25.376 52.4022 22.624 56.3275 19.808C56.5835 19.7653 56.7115 19.7867 56.7115 19.872C56.7542 19.9573 56.7328 20.064 56.6475 20.192C56.5195 20.3627 56.3702 20.5547 56.1995 20.768C54.7062 22.0053 53.4688 23.2 52.4875 24.352C51.5062 25.504 50.7168 26.592 50.1195 27.616C49.5222 28.64 49.0742 29.6 48.7755 30.496C48.5195 31.392 48.3702 32.224 48.3275 32.992C48.1568 34.7413 48.4982 36.32 49.3515 37.728C49.9915 38.6667 50.5035 39.2427 50.8875 39.456C51.3142 39.6693 51.6555 39.7333 51.9115 39.648C52.2102 39.52 52.4448 39.2213 52.6155 38.752C51.8048 38.0267 51.3568 37.4293 51.2715 36.96C51.1862 36.448 51.2502 36.0213 51.4635 35.68C51.6768 35.296 52.0822 34.9973 52.6795 34.784ZM84.1035 50.208C84.1888 51.9573 84.0395 53.536 83.6555 54.944C83.3142 56.1387 82.7168 57.2267 81.8635 58.208C81.0102 59.1893 79.7088 59.68 77.9595 59.68C77.1915 59.5947 76.5088 59.4027 75.9115 59.104C75.3995 58.848 74.9088 58.4427 74.4395 57.888C74.0128 57.3333 73.7995 56.5227 73.7995 55.456C73.7142 55.072 73.7568 54.688 73.9275 54.304C74.0128 53.9627 74.2048 53.6427 74.5035 53.344C74.8448 53.0453 75.3355 52.832 75.9755 52.704C76.4875 52.6187 76.9782 52.6613 77.4475 52.832C77.8742 52.96 78.2795 53.1947 78.6635 53.536C79.0902 53.8773 79.4315 54.432 79.6875 55.2C79.8155 55.5413 80.0075 55.7547 80.2635 55.84C80.5622 55.9253 80.8608 55.9253 81.1595 55.84C81.4582 55.7547 81.7142 55.584 81.9275 55.328C82.1408 55.072 82.2475 54.752 82.2475 54.368C82.2048 53.5573 82.0342 52.896 81.7355 52.384C81.4368 51.9147 81.0528 51.488 80.5835 51.104C80.1568 50.7627 79.6875 50.4213 79.1755 50.08C78.6635 49.7387 78.1942 49.2907 77.7675 48.736C77.3408 48.1813 76.9782 47.456 76.6795 46.56C76.4235 45.7067 76.3168 44.576 76.3595 43.168C76.4022 42.1867 76.4235 41.0987 76.4235 39.904C76.4235 38.7093 76.4235 37.4507 76.4235 36.128C76.4235 34.8053 76.4235 33.4827 76.4235 32.16C76.4235 30.7947 76.4235 29.472 76.4235 28.192C76.3808 25.2053 76.3595 22.176 76.3595 19.104C76.3168 18.72 76.3168 18.3787 76.3595 18.08C76.4022 17.824 76.4662 17.5893 76.5515 17.376C76.6368 17.1627 76.8075 17.0773 77.0635 17.12C77.3195 17.1627 77.5328 17.0773 77.7035 16.864C77.9168 16.608 78.0235 16.3307 78.0235 16.032C78.0662 15.6907 78.0022 15.3707 77.8315 15.072C77.6608 14.7307 77.3408 14.5173 76.8715 14.432C76.4875 14.3893 76.1462 14.4107 75.8475 14.496C75.5915 14.5813 75.3568 14.752 75.1435 15.008C74.9302 15.2213 74.8022 15.6053 74.7595 16.16C74.8448 16.7147 74.8448 17.2053 74.7595 17.632C74.6742 17.9733 74.5248 18.3147 74.3115 18.656C74.0982 18.9547 73.6928 19.0827 73.0955 19.04C72.3702 18.9973 71.8368 18.6987 71.4955 18.144C71.1968 17.5893 71.2182 16.7787 71.5595 15.712C71.8155 15.1147 72.2208 14.5813 72.7755 14.112C73.2448 13.728 73.9062 13.408 74.7595 13.152C75.6555 12.8533 76.8502 12.7467 78.3435 12.832C79.4102 12.832 80.3702 12.96 81.2235 13.216C81.9488 13.4293 82.6102 13.8133 83.2075 14.368C83.8048 14.88 84.1035 15.6267 84.1035 16.608V50.208ZM105.224 27.68C105.224 30.7947 104.776 33.4613 103.88 35.68C102.984 37.856 101.789 39.648 100.296 41.056C98.8448 42.464 97.2022 43.488 95.3675 44.128C93.5328 44.8107 91.6768 45.1733 89.7995 45.216H89.2235C88.8822 45.1733 88.4128 45.0667 87.8155 44.896C87.2182 44.7253 86.6635 44.4053 86.1515 43.936C85.6395 43.4667 85.2555 42.8053 84.9995 41.952C84.7435 41.056 84.7648 39.8827 85.0635 38.432C85.3195 37.536 85.6822 36.8107 86.1515 36.256C86.5355 35.7867 87.0688 35.4667 87.7515 35.296C88.4342 35.1253 89.2662 35.3387 90.2475 35.936C90.5462 36.064 90.7595 36.2987 90.8875 36.64C90.9728 36.9387 90.9942 37.344 90.9515 37.856C90.9088 38.3253 90.6955 38.9227 90.3115 39.648C90.0555 40.2453 89.9275 40.7787 89.9275 41.248C89.9275 41.6747 90.0768 42.0587 90.3755 42.4C90.6742 42.7413 91.2502 42.9333 92.1035 42.976C93.8955 42.3787 95.2608 40.9707 96.1995 38.752C97.1382 36.4907 97.6075 33.8453 97.6075 30.816C97.6075 29.024 97.4582 27.36 97.1595 25.824C96.8608 24.2453 96.3915 22.88 95.7515 21.728C95.1542 20.576 94.3862 19.68 93.4475 19.04C92.5515 18.3573 91.4635 18.016 90.1835 18.016C89.7995 18.016 89.3088 18.1013 88.7115 18.272C88.1142 18.4427 87.5168 18.6133 86.9195 18.784C86.3648 18.9547 85.8742 19.0827 85.4475 19.168C85.0208 19.2533 84.7648 19.232 84.6795 19.104C84.5515 18.9333 84.7222 18.5707 85.1915 18.016C85.6608 17.4187 86.3222 16.8 87.1755 16.16C88.0288 15.52 89.0102 14.9653 90.1195 14.496C91.2288 13.984 92.3595 13.728 93.5115 13.728C95.4742 13.728 97.1808 14.0907 98.6315 14.816C100.125 15.5413 101.341 16.544 102.28 17.824C103.261 19.0613 103.986 20.5333 104.456 22.24C104.968 23.9467 105.224 25.76 105.224 27.68ZM120.221 50.208C120.306 51.9573 120.157 53.536 119.773 54.944C119.432 56.1387 118.834 57.2267 117.981 58.208C117.128 59.1893 115.826 59.68 114.077 59.68C113.309 59.5947 112.626 59.4027 112.029 59.104C111.517 58.848 111.026 58.4427 110.557 57.888C110.13 57.3333 109.917 56.5227 109.917 55.456C109.832 55.072 109.874 54.688 110.045 54.304C110.13 53.9627 110.322 53.6427 110.621 53.344C110.962 53.0453 111.453 52.832 112.093 52.704C112.605 52.6187 113.096 52.6613 113.565 52.832C113.992 52.96 114.397 53.1947 114.781 53.536C115.208 53.8773 115.549 54.432 115.805 55.2C115.933 55.5413 116.125 55.7547 116.381 55.84C116.68 55.9253 116.978 55.9253 117.277 55.84C117.576 55.7547 117.832 55.584 118.045 55.328C118.258 55.072 118.365 54.752 118.365 54.368C118.322 53.5573 118.152 52.896 117.853 52.384C117.554 51.9147 117.17 51.488 116.701 51.104C116.274 50.7627 115.805 50.4213 115.293 50.08C114.781 49.7387 114.312 49.2907 113.885 48.736C113.458 48.1813 113.096 47.456 112.797 46.56C112.541 45.7067 112.434 44.576 112.477 43.168C112.52 42.1867 112.541 41.0987 112.541 39.904C112.541 38.7093 112.541 37.4507 112.541 36.128C112.541 34.8053 112.541 33.4827 112.541 32.16C112.541 30.7947 112.541 29.472 112.541 28.192C112.498 25.2053 112.477 22.176 112.477 19.104C112.434 18.72 112.434 18.3787 112.477 18.08C112.52 17.824 112.584 17.5893 112.669 17.376C112.754 17.1627 112.925 17.0773 113.181 17.12C113.437 17.1627 113.65 17.0773 113.821 16.864C114.034 16.608 114.141 16.3307 114.141 16.032C114.184 15.6907 114.12 15.3707 113.949 15.072C113.778 14.7307 113.458 14.5173 112.989 14.432C112.605 14.3893 112.264 14.4107 111.965 14.496C111.709 14.5813 111.474 14.752 111.261 15.008C111.048 15.2213 110.92 15.6053 110.877 16.16C110.962 16.7147 110.962 17.2053 110.877 17.632C110.792 17.9733 110.642 18.3147 110.429 18.656C110.216 18.9547 109.81 19.0827 109.213 19.04C108.488 18.9973 107.954 18.6987 107.613 18.144C107.314 17.5893 107.336 16.7787 107.677 15.712C107.933 15.1147 108.338 14.5813 108.893 14.112C109.362 13.728 110.024 13.408 110.877 13.152C111.773 12.8533 112.968 12.7467 114.461 12.832C115.528 12.832 116.488 12.96 117.341 13.216C118.066 13.4293 118.728 13.8133 119.325 14.368C119.922 14.88 120.221 15.6267 120.221 16.608V50.208ZM141.341 27.68C141.341 30.7947 140.893 33.4613 139.997 35.68C139.101 37.856 137.906 39.648 136.413 41.056C134.962 42.464 133.32 43.488 131.485 44.128C129.65 44.8107 127.794 45.1733 125.917 45.216H125.341C125 45.1733 124.53 45.0667 123.933 44.896C123.336 44.7253 122.781 44.4053 122.269 43.936C121.757 43.4667 121.373 42.8053 121.117 41.952C120.861 41.056 120.882 39.8827 121.181 38.432C121.437 37.536 121.8 36.8107 122.269 36.256C122.653 35.7867 123.186 35.4667 123.869 35.296C124.552 35.1253 125.384 35.3387 126.365 35.936C126.664 36.064 126.877 36.2987 127.005 36.64C127.09 36.9387 127.112 37.344 127.069 37.856C127.026 38.3253 126.813 38.9227 126.429 39.648C126.173 40.2453 126.045 40.7787 126.045 41.248C126.045 41.6747 126.194 42.0587 126.493 42.4C126.792 42.7413 127.368 42.9333 128.221 42.976C130.013 42.3787 131.378 40.9707 132.317 38.752C133.256 36.4907 133.725 33.8453 133.725 30.816C133.725 29.024 133.576 27.36 133.277 25.824C132.978 24.2453 132.509 22.88 131.869 21.728C131.272 20.576 130.504 19.68 129.565 19.04C128.669 18.3573 127.581 18.016 126.301 18.016C125.917 18.016 125.426 18.1013 124.829 18.272C124.232 18.4427 123.634 18.6133 123.037 18.784C122.482 18.9547 121.992 19.0827 121.565 19.168C121.138 19.2533 120.882 19.232 120.797 19.104C120.669 18.9333 120.84 18.5707 121.309 18.016C121.778 17.4187 122.44 16.8 123.293 16.16C124.146 15.52 125.128 14.9653 126.237 14.496C127.346 13.984 128.477 13.728 129.629 13.728C131.592 13.728 133.298 14.0907 134.749 14.816C136.242 15.5413 137.458 16.544 138.397 17.824C139.378 19.0613 140.104 20.5333 140.573 22.24C141.085 23.9467 141.341 25.76 141.341 27.68ZM173.363 36.96C174.259 38.496 174.579 39.7333 174.323 40.672C174.067 41.568 173.576 42.272 172.851 42.784C172.04 43.3813 170.973 43.808 169.651 44.064C167.944 44.064 166.6 43.744 165.619 43.104C164.637 42.4213 163.891 41.6747 163.379 40.864C162.781 39.9253 162.376 38.8373 162.163 37.6V20.064C162.248 18.4853 162.099 17.2907 161.715 16.48C161.373 15.6267 160.968 15.0293 160.499 14.688C159.987 14.2613 159.368 14.048 158.643 14.048C157.192 14.0907 156.104 14.4533 155.379 15.136C154.653 15.8187 154.12 16.5867 153.779 17.44C153.395 18.4213 153.181 19.5307 153.139 20.768C153.139 21.2373 152.925 21.5787 152.499 21.792C152.072 22.0053 151.624 22.1547 151.155 22.24C150.6 22.3253 149.96 22.3467 149.235 22.304C148.253 22.2613 147.507 22.0907 146.995 21.792C146.525 21.4933 146.184 21.1733 145.971 20.832C145.8 20.448 145.715 20.1067 145.715 19.808C145.715 19.5093 145.715 19.3173 145.715 19.232C145.928 18.208 146.333 17.312 146.931 16.544C147.528 15.776 148.232 15.136 149.043 14.624C149.853 14.0693 150.728 13.6427 151.667 13.344C152.648 13.0027 153.629 12.7467 154.611 12.576C156.915 12.1493 159.432 12.0213 162.163 12.192C163.997 12.4053 165.448 12.8107 166.515 13.408C167.581 13.9627 168.392 14.5387 168.947 15.136C169.587 15.8613 170.013 16.608 170.227 17.376V32.544C170.269 33.3547 170.227 33.952 170.099 34.336C169.971 34.6773 169.821 34.912 169.651 35.04C169.48 35.2107 169.245 35.232 168.947 35.104C168.179 35.0187 167.603 35.0827 167.219 35.296C166.835 35.4667 166.536 35.6587 166.323 35.872C166.109 36.128 165.981 36.448 165.939 36.832C165.939 37.7707 166.088 38.3467 166.387 38.56C166.685 38.7307 167.027 38.752 167.411 38.624C167.88 38.4533 168.392 38.112 168.947 37.6C169.672 36.9173 170.291 36.512 170.803 36.384C171.357 36.2133 171.827 36.1707 172.211 36.256C172.68 36.384 173.064 36.6187 173.363 36.96ZM156.595 34.784C157.789 34.4427 158.685 34.464 159.283 34.848C159.88 35.232 160.285 35.7227 160.499 36.32C160.755 37.0453 160.861 37.92 160.819 38.944C160.733 39.4987 160.584 39.968 160.371 40.352C160.157 40.6933 159.901 40.9707 159.603 41.184C159.261 41.44 158.899 41.6747 158.515 41.888C156.765 42.8693 155.165 43.424 153.715 43.552C152.264 43.68 151.027 43.616 150.003 43.36C148.765 43.0613 147.677 42.5707 146.739 41.888C145.715 40.9493 145.117 39.9253 144.947 38.816C144.819 37.7067 144.968 36.5547 145.395 35.36C145.864 34.1227 146.547 32.8853 147.443 31.648C148.339 30.4107 149.341 29.216 150.451 28.064C153.053 25.376 156.317 22.624 160.243 19.808C160.499 19.7653 160.627 19.7867 160.627 19.872C160.669 19.9573 160.648 20.064 160.563 20.192C160.435 20.3627 160.285 20.5547 160.115 20.768C158.621 22.0053 157.384 23.2 156.403 24.352C155.421 25.504 154.632 26.592 154.035 27.616C153.437 28.64 152.989 29.6 152.691 30.496C152.435 31.392 152.285 32.224 152.243 32.992C152.072 34.7413 152.413 36.32 153.267 37.728C153.907 38.6667 154.419 39.2427 154.803 39.456C155.229 39.6693 155.571 39.7333 155.827 39.648C156.125 39.52 156.36 39.2213 156.531 38.752C155.72 38.0267 155.272 37.4293 155.187 36.96C155.101 36.448 155.165 36.0213 155.379 35.68C155.592 35.296 155.997 34.9973 156.595 34.784ZM209.309 33.504C209.437 35.4667 209.288 37.216 208.861 38.752C208.69 39.392 208.434 40.032 208.093 40.672C207.794 41.312 207.389 41.8667 206.877 42.336C206.365 42.8053 205.746 43.1893 205.021 43.488C204.338 43.7867 203.506 43.936 202.525 43.936C201.672 43.8933 200.904 43.7013 200.221 43.36C199.624 43.0613 199.09 42.592 198.621 41.952C198.152 41.312 197.917 40.416 197.917 39.264C197.832 38.8373 197.874 38.4107 198.045 37.984C198.173 37.6427 198.408 37.3013 198.749 36.96C199.09 36.6187 199.624 36.384 200.349 36.256C200.946 36.1707 201.501 36.2133 202.013 36.384C202.482 36.512 202.93 36.768 203.357 37.152C203.784 37.536 204.146 38.1547 204.445 39.008C204.573 39.392 204.786 39.648 205.085 39.776C205.384 39.8613 205.704 39.8613 206.045 39.776C206.386 39.6907 206.664 39.4987 206.877 39.2C207.133 38.9013 207.261 38.5387 207.261 38.112C207.218 37.1733 207.026 36.448 206.685 35.936C206.344 35.3813 205.917 34.912 205.405 34.528C204.936 34.1013 204.424 33.7173 203.869 33.376C203.314 32.992 202.781 32.5013 202.269 31.904C201.8 31.264 201.416 30.4747 201.117 29.536C200.861 28.5973 200.754 27.3387 200.797 25.76C200.882 23.584 200.904 21.408 200.861 19.232C200.861 17.056 200.861 15.072 200.861 13.28C200.818 11.232 200.797 9.22667 200.797 7.264C200.712 6.83733 200.69 6.45333 200.733 6.112C200.776 5.81333 200.84 5.55733 200.925 5.344C201.053 5.13066 201.245 5.04533 201.501 5.088C201.8 5.13066 202.056 5.024 202.269 4.768C202.482 4.46933 202.589 4.14933 202.589 3.808C202.632 3.424 202.546 3.06133 202.333 2.72C202.162 2.37866 201.821 2.16533 201.309 2.08C200.925 1.99467 200.562 2.016 200.221 2.144C199.922 2.22933 199.645 2.4 199.389 2.656C199.176 2.912 199.048 3.33866 199.005 3.936C199.09 4.576 199.09 5.13067 199.005 5.6C198.92 6.02666 198.749 6.41066 198.493 6.752C198.237 7.05066 197.789 7.17866 197.149 7.136C196.338 7.09333 195.741 6.77333 195.357 6.176C195.016 5.536 195.037 4.64 195.421 3.488C195.677 2.80533 196.125 2.22933 196.765 1.76C197.32 1.33333 198.088 0.970665 199.069 0.671997C200.05 0.330663 201.352 0.202663 202.973 0.287998C204.125 0.287998 205.17 0.437331 206.109 0.735996C206.92 0.991998 207.645 1.39733 208.285 1.952C208.968 2.50666 209.309 3.33866 209.309 4.448V33.504ZM241.309 35.36C241.949 36.3413 242.248 37.216 242.205 37.984C242.205 38.752 242.056 39.4347 241.757 40.032C241.416 40.7147 240.925 41.3333 240.285 41.888C239.346 42.5707 238.429 42.976 237.533 43.104C236.381 43.36 235.037 43.5733 233.501 43.744C232.008 43.9147 230.706 44 229.597 44C228.018 44 226.76 43.7227 225.821 43.168C224.925 42.6133 224.093 41.76 223.325 40.608L210.461 21.6L227.357 4.256C228.125 3.488 228.957 2.86933 229.853 2.4C230.621 1.97333 231.517 1.65333 232.541 1.44C233.608 1.22667 234.717 1.312 235.869 1.696H235.933H235.997C236.637 1.90933 237.298 2.25067 237.981 2.72C238.621 3.27466 239.112 3.89333 239.453 4.576C239.752 5.17333 239.901 5.87733 239.901 6.688C239.944 7.456 239.645 8.30933 239.005 9.248C238.792 9.67466 238.493 9.99466 238.109 10.208C237.768 10.4213 237.362 10.5707 236.893 10.656C236.424 10.7413 235.869 10.6133 235.229 10.272C234.717 10.0587 234.29 9.71733 233.949 9.248C233.65 8.90667 233.416 8.43733 233.245 7.84C233.117 7.24266 233.202 6.51733 233.501 5.664C233.714 5.10933 233.65 4.68266 233.309 4.384C232.968 4.08533 232.52 4.064 231.965 4.32L218.333 17.824L233.053 38.944C233.224 39.2 233.394 39.4347 233.565 39.648C233.736 39.8187 233.928 40.0107 234.141 40.224C234.738 40.5653 235.208 40.5867 235.549 40.288C235.933 39.9893 236.018 39.5413 235.805 38.944C235.506 38.0907 235.442 37.3867 235.613 36.832C235.784 36.2773 236.018 35.808 236.317 35.424C236.658 34.9973 237.085 34.6347 237.597 34.336C238.237 34.0373 238.77 33.9307 239.197 34.016C239.666 34.0587 240.072 34.1867 240.413 34.4C240.754 34.6133 241.053 34.9333 241.309 35.36ZM277.277 36.96C278.173 38.496 278.493 39.7333 278.237 40.672C277.981 41.568 277.491 42.272 276.765 42.784C275.955 43.3813 274.888 43.808 273.565 44.064C271.859 44.064 270.515 43.744 269.533 43.104C268.552 42.4213 267.805 41.6747 267.293 40.864C266.696 39.9253 266.291 38.8373 266.077 37.6V20.064C266.163 18.4853 266.013 17.2907 265.629 16.48C265.288 15.6267 264.883 15.0293 264.413 14.688C263.901 14.2613 263.283 14.048 262.557 14.048C261.107 14.0907 260.019 14.4533 259.293 15.136C258.568 15.8187 258.035 16.5867 257.693 17.44C257.309 18.4213 257.096 19.5307 257.053 20.768C257.053 21.2373 256.84 21.5787 256.413 21.792C255.987 22.0053 255.539 22.1547 255.069 22.24C254.515 22.3253 253.875 22.3467 253.149 22.304C252.168 22.2613 251.421 22.0907 250.909 21.792C250.44 21.4933 250.099 21.1733 249.885 20.832C249.715 20.448 249.629 20.1067 249.629 19.808C249.629 19.5093 249.629 19.3173 249.629 19.232C249.843 18.208 250.248 17.312 250.845 16.544C251.443 15.776 252.147 15.136 252.957 14.624C253.768 14.0693 254.643 13.6427 255.581 13.344C256.563 13.0027 257.544 12.7467 258.525 12.576C260.829 12.1493 263.347 12.0213 266.077 12.192C267.912 12.4053 269.363 12.8107 270.429 13.408C271.496 13.9627 272.307 14.5387 272.861 15.136C273.501 15.8613 273.928 16.608 274.141 17.376V32.544C274.184 33.3547 274.141 33.952 274.013 34.336C273.885 34.6773 273.736 34.912 273.565 35.04C273.395 35.2107 273.16 35.232 272.861 35.104C272.093 35.0187 271.517 35.0827 271.133 35.296C270.749 35.4667 270.451 35.6587 270.237 35.872C270.024 36.128 269.896 36.448 269.853 36.832C269.853 37.7707 270.003 38.3467 270.301 38.56C270.6 38.7307 270.941 38.752 271.325 38.624C271.795 38.4533 272.307 38.112 272.861 37.6C273.587 36.9173 274.205 36.512 274.717 36.384C275.272 36.2133 275.741 36.1707 276.125 36.256C276.595 36.384 276.979 36.6187 277.277 36.96ZM260.509 34.784C261.704 34.4427 262.6 34.464 263.197 34.848C263.795 35.232 264.2 35.7227 264.413 36.32C264.669 37.0453 264.776 37.92 264.733 38.944C264.648 39.4987 264.499 39.968 264.285 40.352C264.072 40.6933 263.816 40.9707 263.517 41.184C263.176 41.44 262.813 41.6747 262.429 41.888C260.68 42.8693 259.08 43.424 257.629 43.552C256.179 43.68 254.941 43.616 253.917 43.36C252.68 43.0613 251.592 42.5707 250.653 41.888C249.629 40.9493 249.032 39.9253 248.861 38.816C248.733 37.7067 248.883 36.5547 249.309 35.36C249.779 34.1227 250.461 32.8853 251.357 31.648C252.253 30.4107 253.256 29.216 254.365 28.064C256.968 25.376 260.232 22.624 264.157 19.808C264.413 19.7653 264.541 19.7867 264.541 19.872C264.584 19.9573 264.563 20.064 264.477 20.192C264.349 20.3627 264.2 20.5547 264.029 20.768C262.536 22.0053 261.299 23.2 260.317 24.352C259.336 25.504 258.547 26.592 257.949 27.616C257.352 28.64 256.904 29.6 256.605 30.496C256.349 31.392 256.2 32.224 256.157 32.992C255.987 34.7413 256.328 36.32 257.181 37.728C257.821 38.6667 258.333 39.2427 258.717 39.456C259.144 39.6693 259.485 39.7333 259.741 39.648C260.04 39.52 260.275 39.2213 260.445 38.752C259.635 38.0267 259.187 37.4293 259.101 36.96C259.016 36.448 259.08 36.0213 259.293 35.68C259.507 35.296 259.912 34.9973 260.509 34.784ZM17.728 64.416C20.0747 64.416 22.2507 64.5653 24.256 64.864C26.304 65.1627 28.0533 65.7173 29.504 66.528C30.9973 67.3387 32.1493 68.448 32.96 69.856C33.8133 71.2213 34.24 73.0133 34.24 75.232C34.24 77.408 33.7707 79.2853 32.832 80.864C31.936 82.4427 30.72 83.744 29.184 84.768C27.6907 85.792 25.9413 86.56 23.936 87.072C21.9733 87.5413 19.9253 87.776 17.792 87.776H15.808V85.792C19.2213 85.3227 21.696 84.2133 23.232 82.464C24.768 80.672 25.536 78.2613 25.536 75.232C25.536 69.5573 22.9547 66.72 17.792 66.72C17.1947 66.72 16.64 66.7627 16.128 66.848C15.616 66.9333 15.0827 67.04 14.528 67.168C14.6133 67.5093 14.656 67.8293 14.656 68.128V97.184C14.6987 97.7387 14.6987 98.3147 14.656 98.912C14.6133 99.424 14.5493 100.021 14.464 100.704C14.4213 101.387 14.2933 102.069 14.08 102.752V103.328V102.88C13.6533 104.117 12.9707 105.227 12.032 106.208C11.0933 107.189 9.70667 107.68 7.872 107.68C7.01867 107.595 6.25067 107.381 5.568 107.04C4.97067 106.741 4.43733 106.293 3.968 105.696C3.49867 105.056 3.264 104.16 3.264 103.008C3.17867 102.581 3.22133 102.155 3.392 101.728C3.52 101.387 3.75467 101.045 4.096 100.704C4.43733 100.363 4.97067 100.128 5.696 100C6.29333 99.9147 6.848 99.9573 7.36 100.128C7.82933 100.256 8.27733 100.512 8.704 100.896C9.13067 101.237 9.49333 101.835 9.792 102.688C9.92 103.072 10.1333 103.328 10.432 103.456C10.7307 103.541 11.0507 103.541 11.392 103.456C11.7333 103.371 12.0107 103.2 12.224 102.944C12.48 102.645 12.608 102.261 12.608 101.792C12.5653 100.896 12.3733 100.192 12.032 99.68C11.6907 99.1253 11.264 98.656 10.752 98.272C10.2827 97.8453 9.77067 97.4613 9.216 97.12C8.66133 96.736 8.128 96.2453 7.616 95.648C7.14667 95.008 6.76267 94.2187 6.464 93.28C6.208 92.2987 6.10133 91.0187 6.144 89.44C6.22933 87.264 6.25067 85.088 6.208 82.912C6.208 80.736 6.208 78.752 6.208 76.96C6.16533 74.912 6.144 72.9067 6.144 70.944C6.05867 70.5173 6.03733 70.1333 6.08 69.792C6.12267 69.4933 6.18667 69.2373 6.272 69.024C6.4 68.8107 6.592 68.7253 6.848 68.768C7.14667 68.8107 7.40267 68.704 7.616 68.448C7.82933 68.192 7.936 67.8933 7.936 67.552C7.97867 67.168 7.89333 66.8053 7.68 66.464C7.50933 66.1227 7.168 65.9093 6.656 65.824C6.272 65.7387 5.90933 65.7387 5.568 65.824C5.26933 65.9093 4.992 66.1013 4.736 66.4C4.52267 66.656 4.39467 67.0827 4.352 67.68C4.43733 68.2773 4.43733 68.8107 4.352 69.28C4.26667 69.7067 4.07467 70.0907 3.776 70.432C3.52 70.7733 3.09333 70.9227 2.496 70.88C1.68533 70.8373 1.088 70.5173 0.704 69.92C0.362667 69.28 0.384 68.3627 0.768 67.168C1.024 66.4853 1.472 65.9093 2.112 65.44C2.66667 65.0133 3.43467 64.6507 4.416 64.352C5.39733 64.0533 6.69867 63.9467 8.32 64.032C8.61867 63.9893 8.93867 63.9893 9.28 64.032C9.57867 64.0747 9.92 64.1387 10.304 64.224C10.688 64.2667 11.072 64.3307 11.456 64.416H17.728ZM62.4855 78.112C63.3388 78.5813 63.9575 79.1787 64.3415 79.904C64.6828 80.5013 64.7895 81.248 64.6615 82.144C64.5762 83.04 63.9575 84.0427 62.8055 85.152C62.3362 85.536 61.8455 85.8133 61.3335 85.984C60.8642 86.112 60.3095 86.112 59.6695 85.984C59.0722 85.856 58.4108 85.4293 57.6855 84.704C56.4482 84.6187 55.3175 84.704 54.2935 84.96C53.4402 85.1733 52.6295 85.6 51.8615 86.24C51.1362 86.8373 50.7522 87.7973 50.7095 89.12V84.448C51.7762 82.656 52.9282 81.184 54.1655 80.032C54.6775 79.52 55.2535 79.072 55.8935 78.688C56.5335 78.2613 57.1948 77.9413 57.8775 77.728C58.6028 77.472 59.3495 77.3653 60.1175 77.408C60.8855 77.4507 61.6748 77.6853 62.4855 78.112ZM44.6295 79.136C45.7388 79.136 46.7415 79.2427 47.6375 79.456C48.4055 79.6693 49.1095 80.0107 49.7495 80.48C50.3895 80.9493 50.7095 81.632 50.7095 82.528V89.12V99.936C50.7095 100.277 50.6882 100.917 50.6455 101.856C50.6455 102.752 50.4535 103.691 50.0695 104.672C49.7282 105.611 49.1095 106.464 48.2135 107.232C47.3602 107.957 46.0588 108.32 44.3095 108.32C43.6268 108.277 43.0082 108.107 42.4535 107.808C41.9842 107.552 41.5362 107.189 41.1095 106.72C40.7255 106.208 40.5335 105.483 40.5335 104.544C40.4908 104.16 40.5335 103.797 40.6615 103.456C40.7468 103.157 40.9175 102.88 41.1735 102.624C41.4722 102.368 41.9202 102.176 42.5175 102.048C42.9868 101.963 43.4348 101.984 43.8615 102.112C44.2028 102.197 44.5655 102.411 44.9495 102.752C45.3335 103.093 45.6322 103.605 45.8455 104.288C45.9308 104.587 46.1015 104.779 46.3575 104.864C46.6135 104.949 46.8695 104.971 47.1255 104.928C47.3815 104.843 47.6162 104.693 47.8295 104.48C48.0428 104.224 48.1495 103.925 48.1495 103.584C48.1068 102.859 47.9362 102.283 47.6375 101.856C47.3815 101.387 47.0402 101.003 46.6135 100.704C46.2295 100.363 45.8028 100.043 45.3335 99.744C44.9068 99.4453 44.5015 99.04 44.1175 98.528C43.7335 98.016 43.4135 97.376 43.1575 96.608C42.9015 95.84 42.7948 94.816 42.8375 93.536V89.12V84.768C42.7948 84.4267 42.7948 84.128 42.8375 83.872C42.8802 83.6587 42.9442 83.4667 43.0295 83.296C43.1148 83.0827 43.2642 82.976 43.4775 82.976C43.6908 82.976 43.8828 82.8693 44.0535 82.656C44.2242 82.4427 44.3308 82.208 44.3735 81.952C44.4162 81.6533 44.3522 81.376 44.1815 81.12C44.0108 80.864 43.7122 80.6933 43.2855 80.608C42.9442 80.5227 42.6455 80.5227 42.3895 80.608C42.1762 80.6933 41.9628 80.8427 41.7495 81.056C41.5362 81.2693 41.4295 81.6107 41.4295 82.08C41.5148 82.592 41.5148 83.04 41.4295 83.424C41.3442 83.7653 41.1948 84.0853 40.9815 84.384C40.7682 84.64 40.4055 84.7467 39.8935 84.704C39.2535 84.6613 38.7842 84.4053 38.4855 83.936C38.1868 83.424 38.2082 82.6773 38.5495 81.696C38.7628 81.184 39.1255 80.7147 39.6375 80.288C40.1068 79.9467 40.7255 79.648 41.4935 79.392C42.2615 79.136 43.3068 79.0507 44.6295 79.136ZM95.2525 100.96C96.1485 102.496 96.4685 103.733 96.2125 104.672C95.9565 105.568 95.4658 106.272 94.7405 106.784C93.9298 107.381 92.8632 107.808 91.5405 108.064C89.8338 108.064 88.4898 107.744 87.5085 107.104C86.5272 106.421 85.7805 105.675 85.2685 104.864C84.6712 103.925 84.2658 102.837 84.0525 101.6V84.064C84.1378 82.4853 83.9885 81.2907 83.6045 80.48C83.2632 79.6267 82.8578 79.0293 82.3885 78.688C81.8765 78.2613 81.2578 78.048 80.5325 78.048C79.0818 78.0907 77.9938 78.4533 77.2685 79.136C76.5432 79.8187 76.0098 80.5867 75.6685 81.44C75.2845 82.4213 75.0712 83.5307 75.0285 84.768C75.0285 85.2373 74.8152 85.5787 74.3885 85.792C73.9618 86.0053 73.5138 86.1547 73.0445 86.24C72.4898 86.3253 71.8498 86.3467 71.1245 86.304C70.1432 86.2613 69.3965 86.0907 68.8845 85.792C68.4152 85.4933 68.0738 85.1733 67.8605 84.832C67.6898 84.448 67.6045 84.1067 67.6045 83.808C67.6045 83.5093 67.6045 83.3173 67.6045 83.232C67.8178 82.208 68.2232 81.312 68.8205 80.544C69.4178 79.776 70.1218 79.136 70.9325 78.624C71.7432 78.0693 72.6178 77.6427 73.5565 77.344C74.5378 77.0027 75.5192 76.7467 76.5005 76.576C78.8045 76.1493 81.3218 76.0213 84.0525 76.192C85.8872 76.4053 87.3378 76.8107 88.4045 77.408C89.4712 77.9627 90.2818 78.5387 90.8365 79.136C91.4765 79.8613 91.9032 80.608 92.1165 81.376V96.544C92.1592 97.3547 92.1165 97.952 91.9885 98.336C91.8605 98.6773 91.7112 98.912 91.5405 99.04C91.3698 99.2107 91.1352 99.232 90.8365 99.104C90.0685 99.0187 89.4925 99.0827 89.1085 99.296C88.7245 99.4667 88.4258 99.6587 88.2125 99.872C87.9992 100.128 87.8712 100.448 87.8285 100.832C87.8285 101.771 87.9778 102.347 88.2765 102.56C88.5752 102.731 88.9165 102.752 89.3005 102.624C89.7698 102.453 90.2818 102.112 90.8365 101.6C91.5618 100.917 92.1805 100.512 92.6925 100.384C93.2472 100.213 93.7165 100.171 94.1005 100.256C94.5698 100.384 94.9538 100.619 95.2525 100.96ZM78.4845 98.784C79.6792 98.4427 80.5752 98.464 81.1725 98.848C81.7698 99.232 82.1752 99.7227 82.3885 100.32C82.6445 101.045 82.7512 101.92 82.7085 102.944C82.6232 103.499 82.4738 103.968 82.2605 104.352C82.0472 104.693 81.7912 104.971 81.4925 105.184C81.1512 105.44 80.7885 105.675 80.4045 105.888C78.6552 106.869 77.0552 107.424 75.6045 107.552C74.1538 107.68 72.9165 107.616 71.8925 107.36C70.6552 107.061 69.5672 106.571 68.6285 105.888C67.6045 104.949 67.0072 103.925 66.8365 102.816C66.7085 101.707 66.8578 100.555 67.2845 99.36C67.7538 98.1227 68.4365 96.8853 69.3325 95.648C70.2285 94.4107 71.2312 93.216 72.3405 92.064C74.9432 89.376 78.2072 86.624 82.1325 83.808C82.3885 83.7653 82.5165 83.7867 82.5165 83.872C82.5592 83.9573 82.5378 84.064 82.4525 84.192C82.3245 84.3627 82.1752 84.5547 82.0045 84.768C80.5112 86.0053 79.2738 87.2 78.2925 88.352C77.3112 89.504 76.5218 90.592 75.9245 91.616C75.3272 92.64 74.8792 93.6 74.5805 94.496C74.3245 95.392 74.1752 96.224 74.1325 96.992C73.9618 98.7413 74.3032 100.32 75.1565 101.728C75.7965 102.667 76.3085 103.243 76.6925 103.456C77.1192 103.669 77.4605 103.733 77.7165 103.648C78.0152 103.52 78.2498 103.221 78.4205 102.752C77.6098 102.027 77.1618 101.429 77.0765 100.96C76.9912 100.448 77.0552 100.021 77.2685 99.68C77.4818 99.296 77.8872 98.9973 78.4845 98.784ZM110.825 109.344C109.63 109.387 108.5 109.28 107.433 109.024C106.366 108.768 105.406 108.427 104.553 108C103.7 107.531 102.974 106.997 102.377 106.4C101.78 105.803 101.353 105.163 101.097 104.48C100.969 104.224 100.841 103.691 100.713 102.88C100.628 102.027 100.692 101.152 100.905 100.256C101.161 99.3173 101.673 98.4853 102.441 97.76C103.209 96.992 104.404 96.5867 106.025 96.544C106.665 96.5867 107.241 96.736 107.753 96.992C108.18 97.2053 108.564 97.5467 108.905 98.016C109.289 98.4427 109.502 99.0827 109.545 99.936C109.588 100.32 109.545 100.661 109.417 100.96C109.332 101.216 109.161 101.472 108.905 101.728C108.649 101.984 108.265 102.155 107.753 102.24C107.326 102.325 106.921 102.304 106.537 102.176C106.196 102.091 105.854 101.92 105.513 101.664C105.172 101.365 104.894 100.917 104.681 100.32C104.596 100.064 104.425 99.8933 104.169 99.808C103.956 99.7227 103.721 99.7227 103.465 99.808C103.209 99.8507 102.996 99.9787 102.825 100.192C102.654 100.405 102.569 100.661 102.569 100.96C102.612 101.941 102.868 102.816 103.337 103.584C103.806 104.309 104.382 104.928 105.065 105.44C105.79 105.909 106.601 106.272 107.497 106.528C108.393 106.784 109.31 106.912 110.249 106.912C111.017 106.912 111.785 106.912 112.553 106.912C113.364 106.869 114.11 106.741 114.793 106.528C115.476 106.272 116.03 105.867 116.457 105.312C116.926 104.757 117.204 103.968 117.289 102.944C117.374 101.792 117.012 100.853 116.201 100.128C115.433 99.36 114.43 98.6773 113.193 98.08C111.998 97.44 110.654 96.8213 109.161 96.224C107.71 95.6267 106.345 94.944 105.065 94.176C103.828 93.3653 102.782 92.4053 101.929 91.296C101.118 90.144 100.713 88.736 100.713 87.072C100.713 85.408 101.012 83.9787 101.609 82.784C102.249 81.5467 103.081 80.544 104.105 79.776C105.129 79.008 106.324 78.432 107.689 78.048C109.054 77.664 110.484 77.472 111.977 77.472C112.233 77.472 112.425 77.4933 112.553 77.536H112.937C113.406 77.536 113.769 77.5573 114.025 77.6C114.324 77.6427 114.58 77.7067 114.793 77.792C117.14 78.304 118.782 79.456 119.721 81.248C119.892 81.4613 120.084 81.9947 120.297 82.848C120.51 83.7013 120.553 84.6187 120.425 85.6C120.297 86.5813 119.892 87.52 119.209 88.416C118.526 89.2693 117.332 89.824 115.625 90.08C114.942 90.1227 114.324 90.0587 113.769 89.888C113.3 89.7173 112.83 89.4187 112.361 88.992C111.934 88.5653 111.657 87.904 111.529 87.008C111.444 86.6667 111.444 86.3253 111.529 85.984C111.614 85.6853 111.742 85.408 111.913 85.152C112.126 84.8533 112.51 84.5973 113.065 84.384C113.492 84.2133 113.918 84.1707 114.345 84.256C114.686 84.3413 115.049 84.512 115.433 84.768C115.86 85.024 116.244 85.4507 116.585 86.048C116.713 86.304 116.905 86.4747 117.161 86.56C117.417 86.6027 117.652 86.5813 117.865 86.496C118.121 86.368 118.334 86.176 118.505 85.92C118.676 85.664 118.74 85.3653 118.697 85.024C118.441 83.5733 117.886 82.464 117.033 81.696C116.222 80.928 115.348 80.3733 114.409 80.032C113.47 79.6907 112.596 79.52 111.785 79.52C110.974 79.4773 110.462 79.4773 110.249 79.52C109.097 79.648 108.158 80.096 107.433 80.864C106.708 81.632 106.345 82.6773 106.345 84C106.345 85.152 106.75 86.112 107.561 86.88C108.372 87.648 109.374 88.3307 110.569 88.928C111.806 89.5253 113.129 90.1227 114.537 90.72C115.988 91.2747 117.31 91.936 118.505 92.704C119.742 93.4293 120.766 94.3253 121.577 95.392C122.388 96.4587 122.793 97.7813 122.793 99.36C122.793 101.024 122.601 102.496 122.217 103.776C121.876 105.013 121.236 106.059 120.297 106.912C119.401 107.723 118.185 108.32 116.649 108.704C115.113 109.131 113.172 109.344 110.825 109.344ZM139.049 98.272C139.177 100.021 139.049 101.6 138.665 103.008C138.323 104.203 137.726 105.291 136.873 106.272C136.019 107.253 134.718 107.744 132.969 107.744C132.158 107.659 131.454 107.467 130.857 107.168C130.345 106.912 129.854 106.507 129.385 105.952C128.958 105.397 128.745 104.587 128.745 103.52C128.659 103.136 128.702 102.752 128.873 102.368C129.001 102.027 129.214 101.728 129.513 101.472C129.811 101.173 130.281 100.96 130.921 100.832C131.475 100.704 131.987 100.725 132.457 100.896C132.883 101.024 133.289 101.28 133.673 101.664C134.099 102.005 134.441 102.539 134.697 103.264C134.782 103.605 134.953 103.84 135.209 103.968C135.507 104.053 135.806 104.053 136.105 103.968C136.403 103.883 136.659 103.712 136.873 103.456C137.129 103.2 137.257 102.88 137.257 102.496C137.257 101.643 137.086 100.981 136.745 100.512C136.446 100 136.062 99.5733 135.593 99.232C135.166 98.8907 134.697 98.5493 134.185 98.208C133.673 97.8667 133.203 97.4187 132.777 96.864C132.35 96.3093 131.987 95.6053 131.689 94.752C131.433 93.856 131.326 92.704 131.369 91.296C131.411 90.3147 131.433 89.2267 131.433 88.032C131.433 86.8373 131.433 85.5787 131.433 84.256C131.433 82.9333 131.433 81.6107 131.433 80.288C131.433 78.9227 131.433 77.6 131.433 76.32C131.39 73.3333 131.369 70.304 131.369 67.232C131.326 66.8053 131.326 66.4427 131.369 66.144C131.411 65.888 131.475 65.6533 131.561 65.44C131.646 65.2267 131.795 65.1413 132.009 65.184C132.265 65.2267 132.478 65.1413 132.649 64.928C132.862 64.672 132.969 64.3947 132.969 64.096C133.011 63.7547 132.947 63.4347 132.777 63.136C132.606 62.8373 132.286 62.6453 131.817 62.56C131.433 62.4747 131.091 62.4747 130.793 62.56C130.537 62.6453 130.302 62.816 130.089 63.072C129.875 63.2853 129.769 63.6693 129.769 64.224C129.854 64.7787 129.854 65.2693 129.769 65.696C129.683 66.08 129.513 66.4213 129.257 66.72C129.043 67.0187 128.638 67.1467 128.041 67.104C127.315 67.0613 126.782 66.7627 126.441 66.208C126.142 65.6533 126.163 64.8427 126.505 63.776C126.761 63.2213 127.166 62.7093 127.721 62.24C128.19 61.856 128.873 61.5147 129.769 61.216C130.665 60.9173 131.859 60.8107 133.353 60.896C134.462 60.896 135.422 61.024 136.233 61.28C136.958 61.4933 137.598 61.8773 138.153 62.432C138.75 62.944 139.049 63.6907 139.049 64.672V98.272ZM165.353 99.936C165.737 101.685 165.694 103.029 165.225 103.968C164.798 104.864 164.243 105.525 163.561 105.952C162.793 106.421 161.833 106.677 160.681 106.72C159.315 106.933 158.121 107.04 157.097 107.04C156.073 106.997 155.198 106.891 154.473 106.72C153.747 106.549 153.129 106.315 152.617 106.016C152.147 105.717 151.763 105.397 151.465 105.056C150.739 104.288 150.377 103.328 150.377 102.176V86.432C150.377 84.384 149.95 82.6773 149.097 81.312C148.286 79.904 147.027 79.2 145.321 79.2C144.809 79.2 144.361 79.2427 143.977 79.328C143.635 79.4133 143.315 79.5413 143.017 79.712C142.718 79.84 142.398 80.0107 142.057 80.224C141.715 80.4373 141.31 80.672 140.841 80.928C140.585 81.0987 140.371 81.248 140.201 81.376C140.03 81.4613 139.859 81.568 139.689 81.696C139.561 81.7813 139.475 81.7813 139.433 81.696C139.305 81.6107 139.262 81.4827 139.305 81.312C139.39 81.1413 139.497 80.9707 139.625 80.8C139.795 80.6293 139.987 80.4373 140.201 80.224C141.822 78.6027 143.379 77.5147 144.873 76.96C146.409 76.3627 148.03 76.064 149.737 76.064C152.638 76.064 154.75 76.9173 156.073 78.624C157.395 80.3307 158.057 82.656 158.057 85.6V87.2C158.057 87.6693 158.035 88.2453 157.993 88.928C157.993 89.568 157.993 90.272 157.993 91.04C157.95 92.4053 157.886 93.856 157.801 95.392C157.758 96.8853 157.758 98.2933 157.801 99.616C157.843 100.896 157.971 101.984 158.185 102.88C158.398 103.733 158.761 104.181 159.273 104.224C159.913 104.309 160.318 104.203 160.489 103.904C160.659 103.605 160.723 103.243 160.681 102.816C160.595 102.347 160.425 101.792 160.169 101.152C159.785 100.427 159.571 99.8293 159.529 99.36C159.486 98.8907 159.507 98.5067 159.593 98.208C159.721 97.8667 159.913 97.5893 160.169 97.376C161.15 96.7787 161.982 96.5867 162.665 96.8C163.347 96.9707 163.881 97.2907 164.265 97.76C164.734 98.3147 165.097 99.04 165.353 99.936ZM199.23 100.96C200.126 102.496 200.446 103.733 200.19 104.672C199.934 105.568 199.443 106.272 198.718 106.784C197.907 107.381 196.841 107.808 195.518 108.064C193.811 108.064 192.467 107.744 191.486 107.104C190.505 106.421 189.758 105.675 189.246 104.864C188.649 103.925 188.243 102.837 188.03 101.6V84.064C188.115 82.4853 187.966 81.2907 187.582 80.48C187.241 79.6267 186.835 79.0293 186.366 78.688C185.854 78.2613 185.235 78.048 184.51 78.048C183.059 78.0907 181.971 78.4533 181.246 79.136C180.521 79.8187 179.987 80.5867 179.646 81.44C179.262 82.4213 179.049 83.5307 179.006 84.768C179.006 85.2373 178.793 85.5787 178.366 85.792C177.939 86.0053 177.491 86.1547 177.022 86.24C176.467 86.3253 175.827 86.3467 175.102 86.304C174.121 86.2613 173.374 86.0907 172.862 85.792C172.393 85.4933 172.051 85.1733 171.838 84.832C171.667 84.448 171.582 84.1067 171.582 83.808C171.582 83.5093 171.582 83.3173 171.582 83.232C171.795 82.208 172.201 81.312 172.798 80.544C173.395 79.776 174.099 79.136 174.91 78.624C175.721 78.0693 176.595 77.6427 177.534 77.344C178.515 77.0027 179.497 76.7467 180.478 76.576C182.782 76.1493 185.299 76.0213 188.03 76.192C189.865 76.4053 191.315 76.8107 192.382 77.408C193.449 77.9627 194.259 78.5387 194.814 79.136C195.454 79.8613 195.881 80.608 196.094 81.376V96.544C196.137 97.3547 196.094 97.952 195.966 98.336C195.838 98.6773 195.689 98.912 195.518 99.04C195.347 99.2107 195.113 99.232 194.814 99.104C194.046 99.0187 193.47 99.0827 193.086 99.296C192.702 99.4667 192.403 99.6587 192.19 99.872C191.977 100.128 191.849 100.448 191.806 100.832C191.806 101.771 191.955 102.347 192.254 102.56C192.553 102.731 192.894 102.752 193.278 102.624C193.747 102.453 194.259 102.112 194.814 101.6C195.539 100.917 196.158 100.512 196.67 100.384C197.225 100.213 197.694 100.171 198.078 100.256C198.547 100.384 198.931 100.619 199.23 100.96ZM182.462 98.784C183.657 98.4427 184.553 98.464 185.15 98.848C185.747 99.232 186.153 99.7227 186.366 100.32C186.622 101.045 186.729 101.92 186.686 102.944C186.601 103.499 186.451 103.968 186.238 104.352C186.025 104.693 185.769 104.971 185.47 105.184C185.129 105.44 184.766 105.675 184.382 105.888C182.633 106.869 181.033 107.424 179.582 107.552C178.131 107.68 176.894 107.616 175.87 107.36C174.633 107.061 173.545 106.571 172.606 105.888C171.582 104.949 170.985 103.925 170.814 102.816C170.686 101.707 170.835 100.555 171.262 99.36C171.731 98.1227 172.414 96.8853 173.31 95.648C174.206 94.4107 175.209 93.216 176.318 92.064C178.921 89.376 182.185 86.624 186.11 83.808C186.366 83.7653 186.494 83.7867 186.494 83.872C186.537 83.9573 186.515 84.064 186.43 84.192C186.302 84.3627 186.153 84.5547 185.982 84.768C184.489 86.0053 183.251 87.2 182.27 88.352C181.289 89.504 180.499 90.592 179.902 91.616C179.305 92.64 178.857 93.6 178.558 94.496C178.302 95.392 178.153 96.224 178.11 96.992C177.939 98.7413 178.281 100.32 179.134 101.728C179.774 102.667 180.286 103.243 180.67 103.456C181.097 103.669 181.438 103.733 181.694 103.648C181.993 103.52 182.227 103.221 182.398 102.752C181.587 102.027 181.139 101.429 181.054 100.96C180.969 100.448 181.033 100.021 181.246 99.68C181.459 99.296 181.865 98.9973 182.462 98.784ZM222.974 77.472C223.614 77.7707 223.827 78.0907 223.614 78.432C223.486 78.6027 223.315 78.6453 223.102 78.56C222.974 78.5173 222.867 78.4747 222.782 78.432C220.99 77.664 219.433 77.3013 218.11 77.344C216.83 77.344 215.721 77.6427 214.782 78.24C213.843 78.7947 213.075 79.5627 212.478 80.544C211.923 81.4827 211.497 82.528 211.198 83.68C210.43 86.3253 210.174 89.5893 210.43 93.472C210.643 95.8187 211.006 97.7173 211.518 99.168C212.03 100.576 212.585 101.664 213.182 102.432C213.822 103.2 214.441 103.733 215.038 104.032C215.635 104.288 216.105 104.437 216.446 104.48H216.51C216.595 104.523 216.723 104.544 216.894 104.544H217.022C217.619 104.544 217.982 104.395 218.11 104.096C218.281 103.755 218.323 103.371 218.238 102.944C218.153 102.475 217.982 101.92 217.726 101.28C217.342 100.597 217.129 100.021 217.086 99.552C217.043 99.0827 217.065 98.6987 217.15 98.4C217.278 98.0587 217.47 97.7813 217.726 97.568C218.707 96.9707 219.539 96.7573 220.222 96.928C220.905 97.0987 221.438 97.4187 221.822 97.888C222.291 98.4427 222.654 99.168 222.91 100.064C223.209 101.515 223.187 102.709 222.846 103.648C222.505 104.544 222.035 105.248 221.438 105.76C220.841 106.272 220.222 106.635 219.582 106.848C218.942 107.061 218.494 107.189 218.238 107.232H217.982C215.507 107.445 213.395 107.339 211.646 106.912C209.939 106.485 208.51 105.867 207.358 105.056C206.206 104.203 205.289 103.2 204.606 102.048C203.966 100.853 203.497 99.6373 203.198 98.4C202.43 95.456 202.409 92.064 203.134 88.224C203.731 85.9627 204.478 84.064 205.374 82.528C206.27 80.992 207.23 79.776 208.254 78.88C209.321 77.9413 210.409 77.2587 211.518 76.832C212.627 76.3627 213.737 76.0853 214.846 76C217.406 75.7867 220.115 76.2773 222.974 77.472ZM224.126 64.736C224.126 63.7547 224.425 63.008 225.022 62.496C225.619 61.9413 226.281 61.5573 227.006 61.344C227.817 61.088 228.777 60.96 229.886 60.96C231.337 60.8747 232.51 60.9813 233.406 61.28C234.302 61.536 234.985 61.856 235.454 62.24C236.009 62.7093 236.414 63.2427 236.67 63.84C237.011 64.9067 237.011 65.7173 236.67 66.272C236.371 66.8267 235.859 67.1253 235.134 67.168C234.537 67.2107 234.11 67.0827 233.854 66.784C233.641 66.4427 233.491 66.1013 233.406 65.76C233.321 65.3333 233.342 64.8427 233.47 64.288C233.427 63.7333 233.299 63.3493 233.086 63.136C232.873 62.88 232.638 62.7093 232.382 62.624C232.083 62.5387 231.742 62.5173 231.358 62.56C230.889 62.6453 230.547 62.8587 230.334 63.2C230.163 63.4987 230.099 63.8187 230.142 64.16C230.185 64.4587 230.291 64.736 230.462 64.992C230.675 65.2053 230.91 65.2907 231.166 65.248C231.379 65.2053 231.529 65.2907 231.614 65.504C231.742 65.7173 231.827 65.952 231.87 66.208C231.913 66.5067 231.913 66.848 231.87 67.232C231.785 70.304 231.742 73.3333 231.742 76.32C231.742 77.6 231.742 78.9227 231.742 80.288C231.742 81.6107 231.742 82.9333 231.742 84.256C231.742 85.5787 231.742 86.8373 231.742 88.032C231.785 89.2267 231.827 90.3147 231.87 91.296C231.913 93.4293 231.635 94.9867 231.038 95.968C230.483 96.9067 229.822 97.6533 229.054 98.208C228.329 98.7627 227.646 99.3173 227.006 99.872C226.366 100.384 226.025 101.259 225.982 102.496C225.982 102.88 226.089 103.2 226.302 103.456C226.515 103.712 226.771 103.883 227.07 103.968C227.369 104.053 227.646 104.053 227.902 103.968C228.201 103.883 228.414 103.669 228.542 103.328C228.755 102.56 229.075 102.005 229.502 101.664C229.929 101.323 230.355 101.088 230.782 100.96C231.251 100.789 231.742 100.747 232.254 100.832C232.894 100.96 233.363 101.173 233.662 101.472C233.961 101.771 234.174 102.091 234.302 102.432C234.43 102.816 234.473 103.2 234.43 103.584C234.387 104.608 234.153 105.419 233.726 106.016C233.299 106.571 232.83 106.976 232.318 107.232C231.721 107.573 231.038 107.765 230.27 107.808C228.521 107.808 227.198 107.317 226.302 106.336C225.449 105.355 224.873 104.267 224.574 103.072C224.19 101.664 224.041 100.085 224.126 98.336V64.736ZM287.101 65.76C286.845 66.3573 286.546 66.7413 286.205 66.912C285.863 67.04 285.543 67.0613 285.245 66.976C284.989 66.8907 284.775 66.7413 284.605 66.528C284.434 66.272 284.37 66.0587 284.413 65.888C284.498 65.5467 284.455 65.2907 284.285 65.12C284.157 64.9493 284.007 64.8213 283.837 64.736C283.623 64.6507 283.389 64.608 283.133 64.608C282.45 64.6507 282.023 64.928 281.853 65.44C281.725 65.9093 281.895 66.3147 282.365 66.656L282.429 66.72H283.581L283.965 66.848C284.05 66.9333 284.135 67.0187 284.221 67.104C284.349 67.1467 284.413 67.2747 284.413 67.488L284.349 68.32L284.157 73.312V73.504V73.568C284.114 73.9093 283.986 74.144 283.773 74.272C283.559 74.3573 283.389 74.4 283.261 74.4H283.133H266.237C266.023 74.4 265.874 74.4427 265.789 74.528C265.746 74.5707 265.682 74.6347 265.597 74.72C265.511 74.848 265.469 74.9547 265.469 75.04L265.021 80.8V80.864V81.184L264.957 81.632H265.021C265.106 82.3147 265.405 82.8693 265.917 83.296C266.258 83.552 266.663 83.7013 267.133 83.744C267.602 83.7867 268.05 83.7653 268.477 83.68C268.989 83.5947 269.479 83.424 269.949 83.168C270.461 82.8693 270.973 82.6133 271.485 82.4C272.679 82.016 273.959 81.9093 275.325 82.08C276.477 82.208 277.778 82.592 279.229 83.232C280.679 83.872 282.194 85.0027 283.773 86.624C283.986 86.8373 284.157 87.0293 284.285 87.2C284.455 87.3707 284.626 87.5627 284.797 87.776H284.861H284.797C285.522 88.672 286.077 89.6747 286.461 90.784C286.845 91.8933 287.037 93.1093 287.037 94.432C287.037 96.5653 286.631 98.464 285.821 100.128C285.053 101.749 284.007 103.136 282.685 104.288C281.362 105.397 279.805 106.251 278.013 106.848C276.263 107.445 274.407 107.744 272.445 107.744C270.055 107.744 267.965 107.509 266.173 107.04C264.423 106.528 262.994 105.867 261.885 105.056C261.159 104.587 260.37 104.011 259.517 103.328C258.706 102.603 258.023 101.792 257.469 100.896C256.957 100 256.679 99.04 256.637 98.016C256.594 96.9493 256.978 95.84 257.789 94.688C258.301 94.048 258.898 93.536 259.581 93.152C260.178 92.8107 260.861 92.64 261.629 92.64C262.397 92.5973 263.271 92.8747 264.253 93.472C264.551 93.6853 264.807 93.9627 265.021 94.304C265.234 94.6027 265.383 94.9867 265.469 95.456C265.597 95.9253 265.618 96.48 265.533 97.12C265.447 97.5467 265.319 97.9093 265.149 98.208C264.978 98.464 264.701 98.6987 264.317 98.912C263.975 99.0827 263.485 99.1253 262.845 99.04C262.333 98.9973 261.927 99.0827 261.629 99.296C261.373 99.4667 261.202 99.7227 261.117 100.064C261.031 100.363 261.053 100.683 261.181 101.024C261.351 101.365 261.607 101.664 261.949 101.92C262.674 102.389 263.271 102.688 263.741 102.816C264.253 102.944 264.701 102.987 265.085 102.944C265.511 102.901 265.895 102.837 266.237 102.752C266.621 102.624 267.069 102.581 267.581 102.624C268.093 102.667 268.69 102.837 269.373 103.136C270.055 103.392 270.93 103.861 271.997 104.544C272.039 104.544 272.21 104.608 272.509 104.736C272.85 104.821 273.234 104.885 273.661 104.928C274.13 104.971 274.642 104.949 275.197 104.864C275.751 104.779 276.306 104.544 276.861 104.16C277.757 103.52 278.461 102.688 278.973 101.664C279.485 100.597 279.741 99.36 279.741 97.952C279.741 96.16 279.335 94.6667 278.525 93.472C277.757 92.2347 276.711 91.2533 275.389 90.528C274.066 89.8027 272.573 89.2907 270.909 88.992C269.245 88.6933 267.559 88.544 265.853 88.544H262.845C262.29 88.5013 261.949 88.2667 261.821 87.84C261.735 87.4133 261.693 87.0933 261.693 86.88L263.421 67.872V67.808C263.506 67.7227 263.634 67.5093 263.805 67.168C263.975 66.8267 264.253 66.6133 264.637 66.528H279.549C279.677 66.528 279.826 66.4853 279.997 66.4C280.082 66.3147 280.167 66.2293 280.253 66.144C280.381 66.0587 280.445 65.9093 280.445 65.696C280.487 64.5867 280.722 63.7973 281.149 63.328C281.575 62.8587 282.066 62.5387 282.621 62.368C283.218 62.1973 283.922 62.176 284.733 62.304C285.629 62.5173 286.247 62.816 286.589 63.2C286.973 63.584 287.207 63.968 287.293 64.352C287.378 64.8213 287.314 65.2907 287.101 65.76ZM295.229 103.904C295.229 102.667 295.677 101.6 296.573 100.704C297.469 99.7653 298.578 99.296 299.901 99.296C301.224 99.296 302.333 99.744 303.229 100.64C304.168 101.493 304.637 102.603 304.637 103.968C304.637 105.205 304.168 106.272 303.229 107.168C302.333 108.064 301.224 108.512 299.901 108.512C298.578 108.512 297.469 108.085 296.573 107.232C295.677 106.379 295.229 105.269 295.229 103.904ZM325.288 65.312C327.507 65.312 329.512 65.824 331.304 66.848C333.139 67.8293 334.696 69.2587 335.976 71.136C337.256 72.9707 338.238 75.1893 338.92 77.792C339.646 80.352 340.008 83.232 340.008 86.432C340.008 89.3333 339.667 92.0853 338.984 94.688C338.344 97.248 337.384 99.488 336.104 101.408C334.867 103.328 333.331 104.843 331.496 105.952C329.704 107.061 327.635 107.616 325.288 107.616C322.814 107.616 320.659 107.04 318.824 105.888C316.99 104.736 315.454 103.2 314.216 101.28C313.022 99.3173 312.104 97.056 311.464 94.496C310.867 91.936 310.568 89.248 310.568 86.432C310.568 83.488 310.888 80.736 311.528 78.176C312.211 75.616 313.171 73.3973 314.408 71.52C315.688 69.6 317.246 68.0853 319.08 66.976C320.915 65.8667 322.984 65.312 325.288 65.312ZM327.08 104.736C328.446 103.968 329.512 102.133 330.28 99.232C331.091 96.3307 331.496 92.064 331.496 86.432C331.496 82.976 331.347 80.0533 331.048 77.664C330.792 75.2747 330.387 73.3547 329.832 71.904C329.32 70.4107 328.68 69.344 327.912 68.704C327.144 68.064 326.291 67.744 325.352 67.744C323.944 67.744 322.835 68.3413 322.024 69.536C321.214 70.688 320.595 72.1813 320.168 74.016C319.742 75.8507 319.464 77.8773 319.336 80.096C319.208 82.272 319.144 84.384 319.144 86.432C319.144 91.3387 319.443 95.3707 320.04 98.528C320.638 101.643 321.747 103.669 323.368 104.608C323.454 104.395 323.518 104.181 323.56 103.968C323.603 103.755 323.624 103.499 323.624 103.2V102.944C323.624 102.816 323.582 102.667 323.496 102.496C323.24 102.027 323.112 101.621 323.112 101.28C323.112 100.981 323.24 100.725 323.496 100.512C323.795 100.256 324.371 100.128 325.224 100.128C325.736 100.085 326.163 100.149 326.504 100.32C326.803 100.448 327.016 100.683 327.144 101.024C327.272 101.323 327.187 101.813 326.888 102.496C326.846 102.581 326.824 102.667 326.824 102.752C326.824 102.837 326.803 102.923 326.76 103.008C326.76 103.051 326.782 103.115 326.824 103.2V103.712C326.824 104.053 326.91 104.395 327.08 104.736Z" fill="url(#paint0_linear_3830_1216)"/>
<defs>
<linearGradient id="paint0_linear_3830_1216" x1="-56" y1="25" x2="283.5" y2="93" gradientUnits="userSpaceOnUse">
<stop stop-color="#9C4801"/>
<stop offset="0.5" stop-color="#BC5906"/>
<stop offset="0.75" stop-color="#E16F10"/>
<stop offset="1" stop-color="#FB8524"/>
</linearGradient>
</defs>
</svg>
