<svg width="450" height="155" viewBox="0 0 450 155" fill="none" xmlns="http://www.w3.org/2000/svg">
<g filter="url(#filter0_d_3839_1013)">
<path d="M9 51C9 22.8335 31.8335 0 60 0H447V91C447 119.167 424.167 142 396 142H9V51Z" fill="url(#paint0_linear_3839_1013)" fill-opacity="0.3" shape-rendering="crispEdges"/>
<path d="M60 1.75H445.25V91C445.25 118.2 423.2 140.25 396 140.25H10.75V51C10.75 23.8 32.8 1.75 60 1.75Z" stroke="#EC6315" stroke-width="3.5" shape-rendering="crispEdges"/>
</g>
<rect x="66" y="21" width="39" height="39" stroke="#F85353"/>
<path d="M95.25 24.25V27.5M75.75 24.25V27.5" stroke="#C16666" stroke-width="2.3" stroke-linecap="round" stroke-linejoin="round"/>
<path d="M82.25 48.625L82.25 42.6892C82.25 42.3776 82.0278 42.125 81.7537 42.125H80.625M88.1482 48.625L90.3493 42.6924C90.4522 42.415 90.2334 42.125 89.9211 42.125H87.125" stroke="#C16666" stroke-width="2.3" stroke-linecap="round"/>
<path d="M70.0625 40.8953C70.0625 33.8146 70.0625 30.2743 72.0972 28.0747C74.1319 25.875 77.4067 25.875 83.9563 25.875H87.0438C93.5933 25.875 96.8681 25.875 98.9028 28.0747C100.937 30.2743 100.938 33.8146 100.938 40.8953V41.7297C100.938 48.8104 100.937 52.3507 98.9028 54.5503C96.8681 56.75 93.5933 56.75 87.0438 56.75H83.9563C77.4067 56.75 74.1319 56.75 72.0972 54.5503C70.0625 52.3507 70.0625 48.8104 70.0625 41.7297V40.8953Z" stroke="#C16666" stroke-width="2.3" stroke-linecap="round" stroke-linejoin="round"/>
<path d="M75.75 34H95.25" stroke="#C16666" stroke-width="2.3" stroke-linecap="round" stroke-linejoin="round"/>
<circle cx="85.5" cy="99.5" r="16.25" stroke="#C16666" stroke-width="2"/>
<path d="M81.4375 95.4375L87.1248 101.124M92 93L83.875 101.125" stroke="#C16666" stroke-width="2" stroke-linecap="round" stroke-linejoin="round"/>
<path d="M146.73 46.18C146.73 47.98 146.06 49.48 144.72 50.68C143.4 51.88 141.76 52.48 139.8 52.48C138.26 52.48 136.87 52.02 135.63 51.1C134.37 50.14 133.52 48.89 133.08 47.35L135.6 46.3C135.92 47.44 136.44 48.32 137.16 48.94C137.9 49.54 138.78 49.84 139.8 49.84C140.92 49.84 141.89 49.49 142.71 48.79C143.51 48.07 143.91 47.2 143.91 46.18C143.91 45.16 143.49 44.3 142.65 43.6C141.83 42.9 140.84 42.55 139.68 42.55H137.91V39.97H139.47C140.57 39.97 141.47 39.67 142.17 39.07C142.87 38.45 143.22 37.65 143.22 36.67C143.22 35.77 142.89 35.04 142.23 34.48C141.57 33.92 140.7 33.64 139.62 33.64C137.88 33.64 136.69 34.53 136.05 36.31L133.5 35.23C133.96 33.97 134.73 32.95 135.81 32.17C136.89 31.39 138.16 31 139.62 31C141.44 31 142.97 31.54 144.21 32.62C145.43 33.66 146.04 35.01 146.04 36.67C146.04 38.65 145.12 40.12 143.28 41.08V41.2C144.36 41.66 145.2 42.33 145.8 43.21C146.42 44.09 146.73 45.08 146.73 46.18ZM157.545 31.48V52H154.785V34.9L150.795 36.64L149.745 34.3L155.775 31.48H157.545ZM173.888 47.92C173.888 49.2 173.328 50.28 172.208 51.16C171.088 52.04 169.678 52.48 167.978 52.48C166.498 52.48 165.198 52.1 164.078 51.34C162.958 50.56 162.158 49.54 161.678 48.28L164.138 47.23C164.498 48.11 165.018 48.8 165.698 49.3C166.398 49.78 167.158 50.02 167.978 50.02C168.858 50.02 169.588 49.83 170.168 49.45C170.768 49.07 171.068 48.62 171.068 48.1C171.068 47.16 170.348 46.47 168.908 46.03L166.388 45.4C163.528 44.68 162.098 43.3 162.098 41.26C162.098 39.92 162.638 38.85 163.718 38.05C164.818 37.23 166.218 36.82 167.918 36.82C169.218 36.82 170.388 37.13 171.428 37.75C172.488 38.37 173.228 39.2 173.648 40.24L171.188 41.26C170.908 40.64 170.448 40.16 169.808 39.82C169.188 39.46 168.488 39.28 167.708 39.28C166.988 39.28 166.338 39.46 165.758 39.82C165.198 40.18 164.918 40.62 164.918 41.14C164.918 41.98 165.708 42.58 167.288 42.94L169.508 43.51C172.428 44.23 173.888 45.7 173.888 47.92ZM182.864 52.24C181.664 52.24 180.664 51.87 179.864 51.13C179.084 50.39 178.684 49.36 178.664 48.04V39.82H176.084V37.3H178.664V32.8H181.424V37.3H185.024V39.82H181.424V47.14C181.424 48.12 181.614 48.79 181.994 49.15C182.374 49.49 182.804 49.66 183.284 49.66C183.504 49.66 183.714 49.64 183.914 49.6C184.134 49.54 184.334 49.47 184.514 49.39L185.384 51.85C184.664 52.11 183.824 52.24 182.864 52.24ZM196.971 55.36L195.681 54.52L197.301 52C196.881 51.92 196.521 51.71 196.221 51.37C195.941 51.03 195.801 50.62 195.801 50.14C195.801 49.56 196.001 49.08 196.401 48.7C196.801 48.3 197.281 48.1 197.841 48.1C198.421 48.1 198.901 48.3 199.281 48.7C199.681 49.08 199.881 49.56 199.881 50.14C199.881 50.68 199.681 51.27 199.281 51.91L196.971 55.36ZM218.778 33.91L215.268 43.6H222.408L218.898 33.91H218.778ZM212.238 52H209.178L217.278 30.52H220.398L228.498 52H225.438L223.368 46.18H214.338L212.238 52ZM243.575 52H240.935V49.96H240.815C240.395 50.68 239.745 51.28 238.865 51.76C238.005 52.24 237.105 52.48 236.165 52.48C234.365 52.48 232.975 51.97 231.995 50.95C231.035 49.91 230.555 48.44 230.555 46.54V37.3H233.315V46.36C233.375 48.76 234.585 49.96 236.945 49.96C238.045 49.96 238.965 49.52 239.705 48.64C240.445 47.74 240.815 46.67 240.815 45.43V37.3H243.575V52ZM254.288 49.96C255.648 49.96 256.758 49.47 257.618 48.49C258.518 47.51 258.968 46.23 258.968 44.65C258.968 43.11 258.518 41.84 257.618 40.84C256.738 39.84 255.628 39.34 254.288 39.34C252.968 39.34 251.858 39.84 250.958 40.84C250.058 41.84 249.608 43.11 249.608 44.65C249.608 46.21 250.058 47.48 250.958 48.46C251.858 49.46 252.968 49.96 254.288 49.96ZM254.198 58.96C253.378 58.96 252.608 58.85 251.888 58.63C251.168 58.43 250.508 58.14 249.908 57.76C249.328 57.38 248.828 56.93 248.408 56.41C247.988 55.89 247.668 55.31 247.448 54.67L250.058 53.59C250.358 54.45 250.878 55.14 251.618 55.66C252.358 56.18 253.218 56.44 254.198 56.44C255.698 56.44 256.868 55.99 257.708 55.09C258.548 54.19 258.968 52.95 258.968 51.37V49.96H258.848C258.328 50.74 257.618 51.36 256.718 51.82C255.838 52.26 254.878 52.48 253.838 52.48C251.918 52.48 250.268 51.73 248.888 50.23C247.528 48.69 246.848 46.83 246.848 44.65C246.848 42.47 247.528 40.62 248.888 39.1C250.268 37.58 251.918 36.82 253.838 36.82C254.878 36.82 255.838 37.05 256.718 37.51C257.618 37.95 258.328 38.56 258.848 39.34H258.968V37.3H261.608V51.37C261.608 53.73 260.938 55.58 259.598 56.92C258.238 58.28 256.438 58.96 254.198 58.96ZM278.627 52H275.987V49.96H275.867C275.447 50.68 274.797 51.28 273.917 51.76C273.057 52.24 272.157 52.48 271.217 52.48C269.417 52.48 268.027 51.97 267.047 50.95C266.087 49.91 265.607 48.44 265.607 46.54V37.3H268.367V46.36C268.427 48.76 269.637 49.96 271.997 49.96C273.097 49.96 274.017 49.52 274.757 48.64C275.497 47.74 275.867 46.67 275.867 45.43V37.3H278.627V52ZM293.99 47.92C293.99 49.2 293.43 50.28 292.31 51.16C291.19 52.04 289.78 52.48 288.08 52.48C286.6 52.48 285.3 52.1 284.18 51.34C283.06 50.56 282.26 49.54 281.78 48.28L284.24 47.23C284.6 48.11 285.12 48.8 285.8 49.3C286.5 49.78 287.26 50.02 288.08 50.02C288.96 50.02 289.69 49.83 290.27 49.45C290.87 49.07 291.17 48.62 291.17 48.1C291.17 47.16 290.45 46.47 289.01 46.03L286.49 45.4C283.63 44.68 282.2 43.3 282.2 41.26C282.2 39.92 282.74 38.85 283.82 38.05C284.92 37.23 286.32 36.82 288.02 36.82C289.32 36.82 290.49 37.13 291.53 37.75C292.59 38.37 293.33 39.2 293.75 40.24L291.29 41.26C291.01 40.64 290.55 40.16 289.91 39.82C289.29 39.46 288.59 39.28 287.81 39.28C287.09 39.28 286.44 39.46 285.86 39.82C285.3 40.18 285.02 40.62 285.02 41.14C285.02 41.98 285.81 42.58 287.39 42.94L289.61 43.51C292.53 44.23 293.99 45.7 293.99 47.92ZM302.966 52.24C301.766 52.24 300.766 51.87 299.966 51.13C299.186 50.39 298.786 49.36 298.766 48.04V39.82H296.186V37.3H298.766V32.8H301.526V37.3H305.126V39.82H301.526V47.14C301.526 48.12 301.716 48.79 302.096 49.15C302.476 49.49 302.906 49.66 303.386 49.66C303.606 49.66 303.816 49.64 304.016 49.6C304.236 49.54 304.436 49.47 304.616 49.39L305.486 51.85C304.766 52.11 303.926 52.24 302.966 52.24ZM318.693 30.04L319.983 30.88L318.483 33.16C318.903 33.24 319.253 33.45 319.533 33.79C319.833 34.13 319.983 34.54 319.983 35.02C319.983 35.58 319.783 36.06 319.383 36.46C319.003 36.86 318.523 37.06 317.943 37.06C317.363 37.04 316.873 36.83 316.473 36.43C316.093 36.03 315.903 35.54 315.903 34.96C315.903 34.68 315.953 34.39 316.053 34.09C316.153 33.79 316.313 33.49 316.533 33.19L318.693 30.04ZM336.616 49.36V52H323.536V49.24L328.846 43.87C330.626 42.05 331.856 40.69 332.536 39.79C333.216 38.87 333.556 37.91 333.556 36.91C333.556 36.01 333.206 35.24 332.506 34.6C331.806 33.96 330.906 33.64 329.806 33.64C328.866 33.64 328.056 33.92 327.376 34.48C326.696 35.04 326.256 35.72 326.056 36.52L323.536 35.5C323.936 34.24 324.706 33.18 325.846 32.32C326.986 31.44 328.326 31 329.866 31C331.726 31 333.276 31.57 334.516 32.71C335.756 33.85 336.376 35.25 336.376 36.91C336.376 38.89 335.286 41.03 333.106 43.33L327.106 49.36H336.616ZM354.032 45.58C354.032 47.54 353.352 49.18 351.992 50.5C350.632 51.82 348.952 52.48 346.952 52.48C345.352 52.48 343.902 51.98 342.602 50.98C341.302 49.98 340.442 48.63 340.022 46.93L342.482 45.94C342.782 47.14 343.322 48.09 344.102 48.79C344.902 49.49 345.832 49.84 346.892 49.84C348.172 49.84 349.212 49.45 350.012 48.67C350.832 47.87 351.242 46.85 351.242 45.61C351.242 44.35 350.832 43.32 350.012 42.52C349.212 41.72 348.182 41.32 346.922 41.32C345.462 41.32 344.312 41.91 343.472 43.09L340.682 41.89L342.002 31.48H352.772V34.12H344.312L343.562 40L343.682 40.03C344.702 39.21 345.942 38.8 347.402 38.8C349.242 38.8 350.802 39.45 352.082 40.75C353.382 42.05 354.032 43.66 354.032 45.58Z" fill="#C16666"/>
<path d="M146.12 103.33C146.12 105.09 145.45 106.55 144.11 107.71C142.75 108.89 141.1 109.48 139.16 109.48C137.22 109.48 135.57 108.89 134.21 107.71C132.87 106.55 132.2 105.09 132.2 103.33C132.2 102.25 132.49 101.27 133.07 100.39C133.65 99.49 134.48 98.78 135.56 98.26V98.14C134.76 97.62 134.11 96.98 133.61 96.22C133.13 95.46 132.89 94.66 132.89 93.82C132.89 92.16 133.48 90.77 134.66 89.65C135.82 88.55 137.32 88 139.16 88C141 88 142.5 88.55 143.66 89.65C144.84 90.77 145.43 92.16 145.43 93.82C145.43 94.66 145.18 95.46 144.68 96.22C144.2 96.98 143.56 97.62 142.76 98.14V98.26C143.84 98.78 144.67 99.49 145.25 100.39C145.83 101.27 146.12 102.25 146.12 103.33ZM135.71 93.76C135.71 94.72 136.03 95.5 136.67 96.1C137.31 96.68 138.14 96.97 139.16 96.97C140.18 96.97 141.01 96.68 141.65 96.1C142.29 95.5 142.61 94.72 142.61 93.76C142.61 92.8 142.29 92.04 141.65 91.48C141.01 90.92 140.18 90.64 139.16 90.64C138.14 90.64 137.31 90.92 136.67 91.48C136.03 92.04 135.71 92.8 135.71 93.76ZM135.02 103.18C135.02 103.72 135.12 104.21 135.32 104.65C135.54 105.09 135.83 105.48 136.19 105.82C136.57 106.14 137.01 106.39 137.51 106.57C138.01 106.75 138.56 106.84 139.16 106.84C139.76 106.84 140.31 106.75 140.81 106.57C141.31 106.39 141.74 106.14 142.1 105.82C142.48 105.48 142.77 105.09 142.97 104.65C143.19 104.21 143.3 103.72 143.3 103.18C143.3 102.14 142.9 101.28 142.1 100.6C141.3 99.9 140.32 99.55 139.16 99.55C138 99.55 137.01 99.9 136.19 100.6C135.41 101.3 135.02 102.16 135.02 103.18ZM153.438 96.16C153.438 96.72 153.238 97.2 152.838 97.6C152.458 98 151.978 98.2 151.398 98.2C150.838 98.2 150.358 98 149.958 97.6C149.558 97.2 149.358 96.72 149.358 96.16C149.358 95.58 149.558 95.1 149.958 94.72C150.358 94.32 150.838 94.12 151.398 94.12C151.978 94.12 152.458 94.32 152.838 94.72C153.238 95.1 153.438 95.58 153.438 96.16ZM153.438 107.14C153.438 107.7 153.238 108.18 152.838 108.58C152.458 108.98 151.978 109.18 151.398 109.18C150.838 109.18 150.358 108.98 149.958 108.58C149.558 108.18 149.358 107.7 149.358 107.14C149.358 106.56 149.558 106.08 149.958 105.7C150.358 105.3 150.838 105.1 151.398 105.1C151.978 105.1 152.458 105.3 152.838 105.7C153.238 106.08 153.438 106.56 153.438 107.14ZM156.811 98.74C156.811 95.62 157.581 93.05 159.121 91.03C160.661 89.01 162.641 88 165.061 88C167.481 88 169.461 89.02 171.001 91.06C172.541 93.08 173.311 95.64 173.311 98.74C173.311 101.82 172.541 104.39 171.001 106.45C169.461 108.47 167.481 109.48 165.061 109.48C162.641 109.48 160.661 108.47 159.121 106.45C157.581 104.39 156.811 101.82 156.811 98.74ZM170.491 98.74C170.491 96.38 169.991 94.44 168.991 92.92C168.011 91.4 166.701 90.64 165.061 90.64C163.421 90.64 162.111 91.4 161.131 92.92C160.131 94.44 159.631 96.38 159.631 98.74C159.631 101.1 160.131 103.05 161.131 104.59C162.111 106.09 163.421 106.84 165.061 106.84C166.701 106.84 168.011 106.08 168.991 104.56C169.991 103.02 170.491 101.08 170.491 98.74ZM176.542 98.74C176.542 95.62 177.312 93.05 178.852 91.03C180.392 89.01 182.372 88 184.792 88C187.212 88 189.192 89.02 190.732 91.06C192.272 93.08 193.042 95.64 193.042 98.74C193.042 101.82 192.272 104.39 190.732 106.45C189.192 108.47 187.212 109.48 184.792 109.48C182.372 109.48 180.392 108.47 178.852 106.45C177.312 104.39 176.542 101.82 176.542 98.74ZM190.222 98.74C190.222 96.38 189.722 94.44 188.722 92.92C187.742 91.4 186.432 90.64 184.792 90.64C183.152 90.64 181.842 91.4 180.862 92.92C179.862 94.44 179.362 96.38 179.362 98.74C179.362 101.1 179.862 103.05 180.862 104.59C181.842 106.09 183.152 106.84 184.792 106.84C186.432 106.84 187.742 106.08 188.722 104.56C189.722 103.02 190.222 101.08 190.222 98.74ZM209.645 109.24C208.445 109.24 207.445 108.87 206.645 108.13C205.865 107.39 205.465 106.36 205.445 105.04V96.82H202.865V94.3H205.445V89.8H208.205V94.3H211.805V96.82H208.205V104.14C208.205 105.12 208.395 105.79 208.775 106.15C209.155 106.49 209.585 106.66 210.065 106.66C210.285 106.66 210.495 106.64 210.695 106.6C210.915 106.54 211.115 106.47 211.295 106.39L212.165 108.85C211.445 109.11 210.605 109.24 209.645 109.24ZM214.044 101.65C214.044 99.39 214.754 97.52 216.174 96.04C217.614 94.56 219.424 93.82 221.604 93.82C223.784 93.82 225.584 94.56 227.004 96.04C228.444 97.52 229.164 99.39 229.164 101.65C229.164 103.93 228.444 105.8 227.004 107.26C225.584 108.74 223.784 109.48 221.604 109.48C219.424 109.48 217.614 108.74 216.174 107.26C214.754 105.78 214.044 103.91 214.044 101.65ZM216.804 101.65C216.804 103.23 217.264 104.51 218.184 105.49C219.104 106.47 220.244 106.96 221.604 106.96C222.964 106.96 224.104 106.47 225.024 105.49C225.944 104.51 226.404 103.23 226.404 101.65C226.404 100.09 225.944 98.82 225.024 97.84C224.084 96.84 222.944 96.34 221.604 96.34C220.264 96.34 219.124 96.84 218.184 97.84C217.264 98.82 216.804 100.09 216.804 101.65ZM246.782 88.48V109H244.022V91.9L240.032 93.64L238.982 91.3L245.012 88.48H246.782ZM251.216 98.74C251.216 95.62 251.986 93.05 253.526 91.03C255.066 89.01 257.046 88 259.466 88C261.886 88 263.866 89.02 265.406 91.06C266.946 93.08 267.716 95.64 267.716 98.74C267.716 101.82 266.946 104.39 265.406 106.45C263.866 108.47 261.886 109.48 259.466 109.48C257.046 109.48 255.066 108.47 253.526 106.45C251.986 104.39 251.216 101.82 251.216 98.74ZM264.896 98.74C264.896 96.38 264.396 94.44 263.396 92.92C262.416 91.4 261.106 90.64 259.466 90.64C257.826 90.64 256.516 91.4 255.536 92.92C254.536 94.44 254.036 96.38 254.036 98.74C254.036 101.1 254.536 103.05 255.536 104.59C256.516 106.09 257.826 106.84 259.466 106.84C261.106 106.84 262.416 106.08 263.396 104.56C264.396 103.02 264.896 101.08 264.896 98.74ZM275.147 96.16C275.147 96.72 274.947 97.2 274.547 97.6C274.167 98 273.687 98.2 273.107 98.2C272.547 98.2 272.067 98 271.667 97.6C271.267 97.2 271.067 96.72 271.067 96.16C271.067 95.58 271.267 95.1 271.667 94.72C272.067 94.32 272.547 94.12 273.107 94.12C273.687 94.12 274.167 94.32 274.547 94.72C274.947 95.1 275.147 95.58 275.147 96.16ZM275.147 107.14C275.147 107.7 274.947 108.18 274.547 108.58C274.167 108.98 273.687 109.18 273.107 109.18C272.547 109.18 272.067 108.98 271.667 108.58C271.267 108.18 271.067 107.7 271.067 107.14C271.067 106.56 271.267 106.08 271.667 105.7C272.067 105.3 272.547 105.1 273.107 105.1C273.687 105.1 274.167 105.3 274.547 105.7C274.947 106.08 275.147 106.56 275.147 107.14ZM278.52 98.74C278.52 95.62 279.29 93.05 280.83 91.03C282.37 89.01 284.35 88 286.77 88C289.19 88 291.17 89.02 292.71 91.06C294.25 93.08 295.02 95.64 295.02 98.74C295.02 101.82 294.25 104.39 292.71 106.45C291.17 108.47 289.19 109.48 286.77 109.48C284.35 109.48 282.37 108.47 280.83 106.45C279.29 104.39 278.52 101.82 278.52 98.74ZM292.2 98.74C292.2 96.38 291.7 94.44 290.7 92.92C289.72 91.4 288.41 90.64 286.77 90.64C285.13 90.64 283.82 91.4 282.84 92.92C281.84 94.44 281.34 96.38 281.34 98.74C281.34 101.1 281.84 103.05 282.84 104.59C283.82 106.09 285.13 106.84 286.77 106.84C288.41 106.84 289.72 106.08 290.7 104.56C291.7 103.02 292.2 101.08 292.2 98.74ZM298.25 98.74C298.25 95.62 299.02 93.05 300.56 91.03C302.1 89.01 304.08 88 306.5 88C308.92 88 310.9 89.02 312.44 91.06C313.98 93.08 314.75 95.64 314.75 98.74C314.75 101.82 313.98 104.39 312.44 106.45C310.9 108.47 308.92 109.48 306.5 109.48C304.08 109.48 302.1 108.47 300.56 106.45C299.02 104.39 298.25 101.82 298.25 98.74ZM311.93 98.74C311.93 96.38 311.43 94.44 310.43 92.92C309.45 91.4 308.14 90.64 306.5 90.64C304.86 90.64 303.55 91.4 302.57 92.92C301.57 94.44 301.07 96.38 301.07 98.74C301.07 101.1 301.57 103.05 302.57 104.59C303.55 106.09 304.86 106.84 306.5 106.84C308.14 106.84 309.45 106.08 310.43 104.56C311.43 103.02 311.93 101.08 311.93 98.74ZM328.773 100.3V109H326.013V87.52H333.333C335.193 87.52 336.773 88.14 338.073 89.38C339.393 90.62 340.053 92.13 340.053 93.91C340.053 95.73 339.393 97.25 338.073 98.47C336.793 99.69 335.213 100.3 333.333 100.3H328.773ZM328.773 90.16V97.66H333.393C334.493 97.66 335.403 97.29 336.123 96.55C336.863 95.81 337.233 94.93 337.233 93.91C337.233 92.91 336.863 92.04 336.123 91.3C335.403 90.54 334.493 90.16 333.393 90.16H328.773ZM346.307 109H343.547V87.52H346.307L353.777 100.6H353.897L361.367 87.52H364.127V109H361.367V96.25L361.487 92.65H361.367L354.647 104.44H353.027L346.307 92.65H346.187L346.307 96.25V109Z" fill="#C16666"/>
<defs>
<filter id="filter0_d_3839_1013" x="0" y="0" width="450" height="155" filterUnits="userSpaceOnUse" color-interpolation-filters="sRGB">
<feFlood flood-opacity="0" result="BackgroundImageFix"/>
<feColorMatrix in="SourceAlpha" type="matrix" values="0 0 0 0 0 0 0 0 0 0 0 0 0 0 0 0 0 0 127 0" result="hardAlpha"/>
<feOffset dx="-3" dy="7"/>
<feGaussianBlur stdDeviation="3"/>
<feComposite in2="hardAlpha" operator="out"/>
<feColorMatrix type="matrix" values="0 0 0 0 0 0 0 0 0 0 0 0 0 0 0 0 0 0 0.24 0"/>
<feBlend mode="normal" in2="BackgroundImageFix" result="effect1_dropShadow_3839_1013"/>
<feBlend mode="normal" in="SourceGraphic" in2="effect1_dropShadow_3839_1013" result="shape"/>
</filter>
<linearGradient id="paint0_linear_3839_1013" x1="447" y1="55" x2="9" y2="55" gradientUnits="userSpaceOnUse">
<stop stop-color="#FDF8EE"/>
<stop offset="1" stop-color="#F2CEA8"/>
</linearGradient>
</defs>
</svg>
