<svg width="190" height="206" viewBox="0 0 190 206" fill="none" xmlns="http://www.w3.org/2000/svg">
<path d="M44.1429 45.2229C47.2754 40.8283 52.2064 37.4507 53.4476 32.1568C54.3138 28.461 53.1782 24.5425 52.9826 20.7082C52.5822 12.8816 56.4212 5.15188 62.8402 0.857994C60.887 7.41946 66.1716 14.3028 72.0189 18.3741C77.8656 22.4464 84.7982 25.3045 89.216 30.8717C93.7952 36.644 94.8232 44.4675 93.6136 51.4901C92.4029 58.512 89.2037 64.9399 86.04 71.2615C90.7847 58.9501 102.397 47.3513 115.757 50.0879C129.221 52.8465 139.234 69.1209 152.616 67.0893C137.945 72.4667 136.432 94.9633 121.759 100.338C114.576 102.969 106.368 100.558 99.0152 97.7303C105.561 102.908 106.744 112.615 103.981 120.127C101.217 127.638 95.3736 133.467 89.6859 139.061C89.2139 133.78 83.4871 130.684 79.1312 127.431C68.7066 119.645 63.542 105.499 66.7053 93.3928C66.6122 99.3852 59.2488 102.528 53.2194 101.553C47.1899 100.577 41.79 97.0359 35.8744 95.4217C28.4338 93.3921 20.2863 94.6311 14.0683 98.7368C19.0575 89.5618 13.1213 75.9292 20.3959 68.4437C24.4883 64.2327 31.5073 63.9007 37.2364 66.0487C42.2124 67.9143 46.6685 71.09 49.7745 75.1866C40.0057 69.5373 37.8877 54 44.1429 45.2229Z" fill="#EECB5B"/>
<path d="M102.115 81.6975C102.29 82.781 102.511 82.7167 103.876 83.5652C107.136 85.5906 111.202 87.2925 114.743 88.7043C119.666 90.6684 124.641 91.3219 129.505 89.423C129.872 89.2792 129.598 88.7533 129.236 88.868C124.414 90.4097 119.855 89.3755 115.182 87.4027C112.017 86.0667 105.884 83.813 103.507 81.0645C104.926 80.4094 106.331 79.7352 107.724 79.0475C113.011 84.2709 127.073 91.4779 132.242 84.4011C132.277 84.3526 132.218 84.2869 132.164 84.3099C123.691 88.0192 115.842 83.8551 108.936 78.4536C110.187 77.8286 111.432 77.1987 112.679 76.5719C118.158 82.8755 128.361 84.7334 135.177 80.3942C135.506 80.1837 135.139 79.7089 134.808 79.8286C126.806 82.7289 120.274 81.5544 113.755 76.0342C115.046 75.3875 116.341 74.7443 117.643 74.1202C122.283 79.0782 130.601 79.8064 136.038 76.6016C136.201 76.5057 136.088 76.2508 135.904 76.3249C129.842 78.751 124.172 77.2979 119.082 73.4498C119.539 73.2366 119.994 73.018 120.455 72.8099C125.756 74.186 130.965 74.3552 136.15 72.8026C136.476 72.7048 136.287 72.1438 135.955 72.2263C131.527 73.3223 126.848 73.3254 122.416 71.9462C126.141 70.3576 129.991 68.9951 134.107 68.088C134.419 68.0194 134.32 67.5997 134.011 67.6103C129.589 67.7565 125.347 68.8155 121.239 70.3059C122.665 68.8008 124.145 67.4595 126.092 66.442C128.419 65.2255 130.948 64.7445 133.521 64.2143C133.651 64.1876 133.648 63.9865 133.504 63.9748C128.207 63.5615 122.119 66.7023 119.298 71.0445C118.77 71.254 118.25 71.4852 117.726 71.7062C118.068 69.3969 118.859 67.2186 120.205 65.2958C121.731 63.1141 123.798 61.9184 125.766 60.2252C125.852 60.1517 125.784 59.985 125.661 60.0113C120.344 61.1397 117.148 67.1629 116.492 72.2263C115.228 72.7785 113.979 73.3577 112.736 73.9433C113.792 67.2243 118.134 61.8622 123.85 58.2434C123.991 58.1532 123.831 57.9072 123.682 57.9865C118.467 60.7624 110.694 67.6618 111.52 74.5157C110.136 75.176 108.771 75.8374 107.411 76.49C107.36 68.945 112.512 62.276 118.185 57.9083C118.401 57.7424 118.124 57.4283 117.904 57.5763C113.793 60.3486 110.342 63.5842 108.272 68.1539C107.062 70.8231 105.63 74.0409 106.196 77.0672C104.793 77.7329 103.379 78.3751 101.956 78.9975C101.564 75.0376 102.16 71.7903 104.133 68.0724C106.39 63.8195 109.428 60.29 113.396 57.5278C113.778 57.262 113.293 56.7103 112.914 56.9593C107.324 60.6319 97.1291 71.6115 100.536 79.6081C99.0804 80.2194 97.6064 80.7897 96.111 81.3111C96.1918 71.7496 100.699 63.1071 108.576 57.7031C108.96 57.4396 108.476 56.8885 108.095 57.1346C99.6438 62.6065 94.799 71.6364 94.847 81.7414C94.2696 81.9286 93.6897 82.1072 93.1051 82.2743C92.808 82.3586 92.448 82.4584 92.0468 82.5646C91.3652 79.248 91.315 76.3262 92.4778 72.7218C94.2785 67.1402 97.6446 62.3679 101.815 58.3441C102.087 58.0814 101.7 57.6114 101.414 57.8696C96.3423 62.4602 86.8166 74.6637 90.2643 83.0094C89.0842 83.2861 87.7135 83.5687 86.2826 83.7955C86.1304 77.6071 87.6754 72.2945 92.0461 67.6761C92.1993 67.5141 91.9903 67.2432 91.8057 67.3914C87.0189 71.2434 84.0888 77.5458 84.8559 83.8616C84.8347 83.9064 84.8218 83.9555 84.8089 84.0047C80.4448 84.542 75.8893 84.3633 74.4276 81.7036C74.3174 81.502 74.1753 81.3362 74.0128 81.2021C74.3088 80.6569 74.5678 80.1061 74.8125 79.5535C74.8242 79.5508 74.8369 79.5529 74.8483 79.5487C74.9293 79.5256 75.0064 79.4917 75.0868 79.4654C75.264 79.4541 75.4102 79.4022 75.518 79.3139C79.352 77.814 82.2043 73.5629 83.1862 69.7858C83.234 69.6027 82.9647 69.4291 82.8586 69.6146C81.7848 71.4977 80.4859 73.349 78.9089 74.8418C77.94 75.7589 76.8291 76.4345 75.7224 77.1266C76.2263 75.5198 76.5564 73.8888 76.7168 72.2336C82.8135 70.5168 87.0015 64.6323 87.7619 58.5348C87.8116 58.1352 87.1349 57.9686 87.0469 58.3685C85.7268 64.3935 82.0206 68.0656 76.8245 70.4996C76.8685 69.1406 76.824 67.771 76.6885 66.3878C83.3663 62.4172 88.8426 56.2507 88.362 47.9634C88.3532 47.811 88.1351 47.7814 88.118 47.9386C87.2275 55.6638 83.0112 61.247 76.5368 65.073C76.3737 63.8518 76.1537 62.6232 75.8808 61.3873C82.6335 57.5531 88.3418 49.7748 87.0782 41.5537C87.0658 41.4678 86.9185 41.4459 86.9016 41.5356C85.3497 49.4959 82.7761 55.8828 75.5771 60.0717C75.1967 58.5306 74.7518 56.9807 74.2502 55.425C80.0509 50.2449 85.593 46.0366 84.9846 37.1821C84.9745 37.0316 84.7441 36.9974 84.7405 37.1573C84.531 45.3972 79.4645 49.4797 73.8053 54.0768C73.4348 52.9838 73.0476 51.8885 72.6394 50.7907C79.4427 47.8959 83.117 40.2795 81.2508 33.0113C81.2348 32.9487 81.125 32.9422 81.1298 33.0146C81.6286 40.5649 78.6166 46.0791 72.2704 49.8056C71.7457 48.4218 71.2038 47.0382 70.6506 45.6548C70.6993 45.6334 70.7487 45.6192 70.7958 45.5818C76.2284 41.228 78.6263 34.469 76.9707 27.504C76.9159 27.2735 76.5736 27.3274 76.6116 27.5597C77.6776 34.1512 75.335 40.4738 70.1816 44.4819C69.7046 43.294 69.2251 42.1056 68.752 40.9204C68.8674 40.8903 68.9794 40.8387 69.0726 40.7308C72.7159 36.5057 73.8964 30.8269 72.3719 25.3043C72.2471 24.8528 71.542 24.9533 71.652 25.4159C72.9121 30.6682 71.6572 35.7333 68.2578 39.6798C67.7093 38.2916 67.1729 36.9064 66.6639 35.5283C69.2753 31.8203 69.4849 25.2342 68.1657 20.8596C68.1259 20.7275 67.9411 20.7253 67.9239 20.8662C67.6341 23.1601 68.0373 25.5564 67.8327 27.8803C67.6334 30.1374 66.9946 32.0571 66.1264 34.0327C64.0961 28.3048 62.6236 22.6968 62.7456 17.3716C62.7551 16.9465 62.0928 16.8753 62.0736 17.3043C61.8355 22.6443 62.8921 27.9151 64.4807 33.1415C63.1408 31.8785 61.9069 30.595 60.9256 28.9349C59.6229 26.7343 59.0203 24.3446 58.4252 21.9155C58.393 21.7847 58.1898 21.7805 58.1834 21.9222C57.9762 26.6003 60.9607 32.2818 65.0552 34.9567C65.5529 36.4812 66.0896 38.0006 66.6446 39.5179C64.9961 38.4516 63.2597 37.5957 61.8218 36.0299C59.7648 33.7911 58.4527 31.0806 57.5676 28.2387C57.5326 28.1262 57.3747 28.1483 57.3879 28.2658C57.9217 32.9566 62.0285 40.2211 67.3121 41.317C67.7905 42.5965 68.2781 43.8731 68.7631 45.1492C63.3357 43.6211 59.1451 40.4392 57.4099 34.7582C57.3313 34.4988 56.9373 34.5477 56.9906 34.8232C58.0968 40.5848 63.1638 46.0423 69.2897 46.5383C69.8803 48.1022 70.4575 49.6648 71.0076 51.226C63.7958 50.9522 57.8413 47.5894 55.6084 40.235C55.5184 39.9392 55.0501 39.9997 55.129 40.3094C56.9623 47.5193 63.7483 53.3387 71.4168 52.4058C71.9561 53.9865 72.452 55.5666 72.8948 57.1461C65.7117 56.4011 56.8547 52.9317 54.0925 45.7399C53.9342 45.3286 53.3478 45.6042 53.4887 46.006C56.1881 53.7344 65.4594 57.5899 73.0122 58.5532C73.1084 58.5651 73.1892 58.5526 73.267 58.534C73.7874 60.5576 74.1944 62.5816 74.454 64.6066C64.7478 63.1099 56.689 58.2222 51.676 49.3989C51.5002 49.0904 51.0201 49.2942 51.1817 49.6171C55.6072 58.4811 64.6417 65.3119 74.6236 66.1911C74.7584 67.7362 74.7833 69.2829 74.7047 70.8302C63.9829 69.2097 55.408 64.2069 50.3891 54.0113C50.3174 53.8663 50.1165 53.9625 50.1696 54.108C53.7727 63.8468 63.9442 72.1396 74.5863 72.3821C74.4123 74.0792 74.0726 75.7792 73.5774 77.4814C69.3327 76.3065 65.774 74.0217 61.9722 71.6682C57.979 69.1956 54.0536 66.7921 52.1329 62.3116C52.0217 62.0524 51.6571 62.226 51.7486 62.481C53.4358 67.158 57.2702 69.9105 61.2996 72.6385C64.9364 75.0998 68.7241 78.1418 73.0369 79.1614C72.8371 79.7144 72.6348 80.267 72.3935 80.8207C71.6076 80.985 70.9879 81.6202 71.2715 82.6186L71.2718 82.6202C68.32 81.8065 65.2758 80.9998 62.2052 80.3005C61.8426 76.984 59.1832 74.115 56.2494 72.6602C56.1851 72.6288 56.1397 72.7269 56.1957 72.7662C58.8377 74.5931 60.1438 76.9272 61.1105 79.7451C60.9028 79.7147 60.6832 79.7748 60.5407 79.9172C59.4063 79.6777 58.2687 79.455 57.1305 79.2616C56.6919 75.5171 53.1233 72.546 50.185 70.4317C50.0199 70.3134 49.8668 70.5486 50.0157 70.6759C52.9534 73.1781 55.0441 75.6354 55.9908 79.0889C54.7473 78.8988 53.5038 78.7332 52.2638 78.6215C49.5887 74.8402 44.1579 72.5695 39.8763 72.6435C39.7218 72.6463 39.7032 72.8566 39.8621 72.8839C42.581 73.3573 45.2188 74.1554 47.5508 75.7288C48.7358 76.5288 49.6825 77.4974 50.5861 78.5159C49.1228 78.4331 47.6633 78.3937 46.2204 78.4607C44.0024 74.2808 38.303 73.0616 34.0493 72.7898C33.8524 72.7764 33.837 73.0593 34.0317 73.0901C36.357 73.457 38.6263 73.9985 40.7676 75.0567C42.5677 75.945 43.7695 77.1139 44.9728 78.5087C43.1613 78.6572 41.2384 78.9808 39.3399 79.4973C36.2089 76.6283 30.7319 75.8113 27.103 77.4858C27.0097 77.5288 27.0577 77.6734 27.1609 77.659C29.443 77.3366 31.6197 77.1542 33.9113 77.8061C35.4575 78.2459 36.7744 79.0205 38.0836 79.8695C36.8932 80.2526 35.7241 80.7089 34.6159 81.2605C31.4118 80.4299 27.2202 80.5981 25.2751 83.1066C25.2091 83.1916 25.3327 83.2822 25.4121 83.2309C26.9693 82.2168 28.7253 81.6614 30.6359 81.704C31.4873 81.7224 32.3165 81.8848 33.1419 82.0608C30.3603 83.7414 28.1167 86.0653 27.091 89.1581C27.035 89.3286 27.2573 89.4193 27.3638 89.3003C29.5654 86.8496 31.8902 84.883 34.4094 83.3977C33.4412 86.9596 33.1199 89.9651 29.1074 91.4536C29.0498 91.4756 29.0718 91.564 29.1307 91.5687C33.5096 92.004 35.4608 86.3479 35.5573 82.9293C35.5585 82.8746 35.547 82.826 35.5324 82.7778C36.5083 82.2703 37.5164 81.8366 38.5546 81.4674C38.2927 82.9919 38.5441 84.6539 38.1845 86.1912C37.6274 88.5673 36.2653 90.2552 34.6069 91.9671C34.5165 92.0608 34.5742 92.2771 34.7371 92.2356C38.7045 91.2216 40.9991 84.9682 39.6786 81.1108C41.4546 80.5775 43.3291 80.2403 45.3197 80.0941C44.6158 85.1079 43.5808 90.1145 38.8404 92.8608C38.6759 92.9555 38.7906 93.2077 38.9757 93.1383C44.4708 91.0896 46.0406 85.4194 46.5897 80.028C47.6149 79.9974 48.6673 80.0089 49.7578 80.0795C50.1167 80.1035 50.4704 80.1535 50.8277 80.1859C51.6631 86.6538 49.4723 91.8877 43.278 94.5457C43.1556 94.5981 43.2201 94.8084 43.3556 94.776C49.7198 93.2641 54.0239 86.7965 52.1307 80.3147C52.1424 80.3161 52.1535 80.3185 52.1652 80.3199C52.3504 80.5294 52.5387 80.7384 52.7315 80.9451C53.0263 81.2612 53.4905 80.9623 53.3386 80.5745C53.3269 80.5446 53.3097 80.5163 53.298 80.4865C54.0891 80.6019 54.8784 80.7364 55.6645 80.8836C56.0303 87.6398 53.8971 91.8476 47.767 95.1095C47.6196 95.1877 47.6874 95.4179 47.8643 95.3969C55.0876 94.5461 57.1306 87.3235 56.8869 81.1306C58.1499 81.3883 59.4076 81.6761 60.6639 81.9739C61.3996 87.8645 58.2203 92.0436 53.3717 95.2555C53.2724 95.3213 53.3613 95.4945 53.4761 95.4694C59.5418 94.1396 62.4198 88.0672 61.9564 82.2848C65.3982 83.1168 68.834 83.9879 72.3218 84.5355C72.4338 84.6612 72.5558 84.7765 72.6798 84.889C72.618 85.0392 72.5856 85.2101 72.6284 85.4214C72.9693 87.0703 73.6474 88.5466 74.5352 89.9098C72.1198 90.8602 71.2652 93.2662 70.8469 95.7273C70.2342 99.3366 70.0003 103.729 71.1207 107.336C71.1503 107.43 71.2969 107.44 71.3024 107.33C71.5548 102.017 69.9828 94.11 75.0995 90.715C75.9321 91.8461 76.8963 92.9056 77.9364 93.9208C71.7911 96.9704 72.4962 105.887 72.7192 111.796C72.7261 111.984 73.0324 112.094 73.077 111.879C74.365 105.574 72.7432 98.7684 78.7622 94.7074C79.7752 95.6495 80.831 96.5647 81.8683 97.4819C76.6943 101.235 75.0614 109.416 76.993 115.382C77.0286 115.493 77.1884 115.472 77.1727 115.355C76.7152 111.863 76.7829 108.399 77.9823 105.121C79.0125 102.304 80.7622 100.33 82.5447 98.0868C83.7476 99.1645 84.9096 100.254 85.9268 101.406C83.2971 103.33 81.2683 105.904 80.2924 109.05C79.769 110.737 78.6154 114.997 80.1149 116.471C80.2023 116.557 80.3458 116.597 80.4431 116.509L80.5756 116.389C80.6432 116.328 80.6241 116.218 80.5328 116.182C79.0525 115.592 81.232 109.205 81.7342 108.123C82.8442 105.729 84.5076 103.8 86.6422 102.26C87.561 103.414 88.3466 104.607 89.0261 105.828C83.4454 108.599 81.0893 115.589 82.2793 121.539C82.3182 121.736 82.5973 121.684 82.5799 121.493C81.9734 115.088 84.8882 110.533 89.5363 106.801C90.1545 108.034 90.6829 109.29 91.091 110.574C86.7651 112.683 84.0344 119.592 84.9191 124.227C84.9574 124.424 85.2352 124.37 85.2181 124.181C85.0159 121.798 86.2404 118.752 87.1492 116.61C88.0892 114.397 89.4844 112.832 91.3677 111.486C91.638 112.455 91.8605 113.433 92.0247 114.423C88.8373 117.078 85.2963 124.966 89.0547 128.686C89.1425 128.773 89.2845 128.717 89.2666 128.592C88.8876 125.916 88.318 123.988 89.1814 121.347C89.8158 119.406 91.0687 117.875 92.024 116.165C92.1082 116.347 92.1946 116.528 92.2882 116.705C92.5587 119.8 92.3928 122.956 91.841 126.104C91.7682 126.519 92.4191 126.635 92.5565 126.27C93.3732 124.1 93.8082 121.794 93.9204 119.449C94.3498 120.192 94.7311 120.968 94.9648 121.836C95.5494 124.008 95.2073 125.894 95.1424 128.033C95.14 128.126 95.2696 128.218 95.3451 128.14C97.959 125.428 96.4474 119.478 93.8819 116.335C93.7842 114.989 93.5842 113.642 93.2909 112.313C96.6578 114.84 98.9472 118.086 98.7494 122.496C98.7302 122.925 99.3712 122.984 99.4208 122.564C99.9499 118.098 97.5232 112.628 92.9377 110.89C92.4907 109.253 91.8976 107.656 91.1798 106.129C95.2824 108.295 100.971 110.852 101.074 116.186C101.079 116.417 101.422 116.458 101.441 116.224C101.836 111.189 95.6534 105.363 90.781 104.949C90.7155 104.943 90.6548 104.958 90.5982 104.98C90.1487 104.138 89.6523 103.33 89.1241 102.546C90.8597 102.652 92.5183 102.659 94.3434 103.38C96.7964 104.35 98.2347 106.216 100.387 107.558C100.452 107.598 100.546 107.552 100.528 107.471C99.5381 103.246 92.248 99.8791 87.9663 100.937C87.0446 99.7287 86.0471 98.5768 85.0173 97.447C87.4004 97.5472 89.6566 97.5842 92.0488 98.2416C93.3506 98.5982 94.6584 99.0132 95.7902 99.8003C96.8869 100.563 97.3712 101.602 98.2276 102.548C98.2866 102.613 98.3735 102.575 98.3886 102.501C98.835 100.182 95.984 98.4473 94.102 97.6181C91.0674 96.2822 87.1483 95.6438 83.9662 96.3132C83.3848 95.6936 82.796 95.0783 82.2079 94.4622C83.812 94.2645 85.4018 94.0081 87.0614 94.1051C89.5317 94.2487 91.4742 95.1515 93.7475 96.0355C93.8378 96.0703 93.8987 95.9641 93.8454 95.8943C91.2221 92.4172 85.1487 92.4789 81.1069 93.3028C80.3377 92.4895 79.5825 91.6643 78.8421 90.8279C80.1305 90.9451 81.4569 90.871 82.7377 91.0194C84.595 91.2346 86.4156 91.6432 88.2158 92.1892C88.5575 92.2931 88.722 91.8196 88.3878 91.6804C85.3302 90.4042 80.9253 88.7597 77.6438 89.4136C77.6406 89.4141 77.6393 89.416 77.6355 89.4174C76.7993 88.4055 75.9963 87.3682 75.2669 86.2715C77.418 86.9183 79.9927 86.8888 82.0117 86.8747C83.198 86.8663 84.3718 86.772 85.5398 86.6412C86.7442 88.287 89.0502 89.5945 90.4487 90.5507C92.7462 92.1229 95.5249 94.3311 98.3267 93.1817C98.439 93.1358 98.4415 92.9346 98.3076 92.9017C95.6378 92.2557 93.57 90.8308 91.4169 89.1541C90.2682 88.259 88.9861 87.3546 87.9947 86.2855C89.1807 86.0738 90.3583 85.8293 91.5213 85.5245C91.5614 85.6215 91.6188 85.7159 91.7133 85.7996C98.4229 91.7536 110.021 99.199 119.219 97.5173C119.638 97.441 119.633 96.7335 119.163 96.738C109.335 96.8408 100.835 90.5191 92.9482 85.1323C94.0852 84.7998 95.2123 84.4387 96.3236 84.0394C98.9626 88.8118 105.304 90.9583 110.159 92.5443C115.232 94.2014 120.576 95.7025 125.432 93.2781C125.711 93.139 125.508 92.733 125.217 92.8351C117.311 95.579 102.953 90.4937 97.5453 83.5929C97.562 83.5871 97.5788 83.5812 97.5946 83.5747C99.1304 82.999 100.632 82.3611 102.115 81.6975Z" fill="#E19292"/>
<path opacity="0.4" d="M83.0966 90.3822C79.3055 94.8123 71.5524 94.0606 66.8928 90.1172C62.2333 86.1738 60.1172 80.0624 59.0685 74.1773C58.0156 68.2677 58.0045 61.6557 61.8126 57.205C65.6202 52.7553 74.368 52.5916 77.0071 58.0625C78.5349 61.2299 77.5825 65.0317 79.0115 68.2396C81.1622 73.0666 87.3426 74.3478 92.5186 75.4562C97.6947 76.5647 103.874 79.4746 104.035 84.6665C104.232 90.9716 95.8561 92.9761 89.489 93.0583L83.0966 90.3822Z" fill="#EA7F69"/>
<path opacity="0.4" d="M75.3347 90.2866C67.5795 85.2299 64.9385 73.7937 69.8223 66.4165C70.316 72.1958 75.092 77.5375 80.8592 78.7608C82.7858 79.1693 84.961 79.2457 86.3767 80.6376C88.5872 82.8079 87.1378 86.7584 84.4397 88.0413C81.7416 89.3243 78.4879 88.7729 75.4729 88.1951L75.3347 90.2866Z" fill="#E2ED64"/>
<path d="M83.7713 80.2177C80.6609 78.0398 77.4742 80.9483 77.799 83.7755C77.7074 83.5043 77.6148 83.2325 77.5232 82.9613C77.213 82.3272 76.7672 81.8053 76.1848 81.3948L75.4253 80.863C75.2193 80.7079 75.0036 80.5852 74.7781 80.4869C76.161 80.3699 77.3322 79.4117 77.8939 78.1797C78.0902 78.3834 78.3165 78.5784 78.576 78.7601C82.7386 81.6748 87.0447 75.4792 82.8745 72.5592C80.518 70.9092 78.1193 72.1798 77.2342 74.1206C77.038 73.9169 76.8117 73.7219 76.5522 73.5402C72.3896 70.6255 68.0835 76.821 72.2537 79.7411C72.4866 79.9041 72.7194 80.0306 72.9519 80.1393C72.8047 80.1459 72.6575 80.1402 72.5091 80.169C71.9984 80.2295 71.5454 80.4063 71.1483 80.698C70.6894 80.9261 70.3203 81.259 70.0418 81.6974C69.89 81.9998 69.738 82.3007 69.5862 82.6032C69.3758 83.2367 69.3376 83.8866 69.47 84.5531C69.5752 84.8677 69.6821 85.1821 69.7889 85.4964C70.0991 86.1305 70.545 86.6524 71.1274 87.0629L71.8869 87.5947C72.3213 87.9233 72.7986 88.1249 73.3182 88.2004C73.8058 88.3565 74.3012 88.3853 74.8037 88.2878C75.3138 88.2282 75.7668 88.0514 76.1645 87.7588C76.6227 87.5315 76.9919 87.1986 77.271 86.7593L77.7266 85.8536C77.9153 85.286 77.9584 84.7045 77.8713 84.109C78.0543 84.949 78.5434 85.7651 79.474 86.4167C83.6353 89.3332 87.9405 83.137 83.7713 80.2177Z" fill="#95500B"/>
<path d="M79.1429 97.2229C82.2754 92.8283 87.2064 89.4507 88.4476 84.1568C89.3138 80.461 88.1782 76.5425 87.9826 72.7082C87.5822 64.8816 91.4212 57.1519 97.8402 52.858C95.887 59.4195 101.172 66.3028 107.019 70.3741C112.866 74.4464 119.798 77.3045 124.216 82.8717C128.795 88.644 129.823 96.4675 128.614 103.49C127.403 110.512 124.204 116.94 121.04 123.262C125.785 110.95 137.397 99.3513 150.757 102.088C164.221 104.847 174.234 121.121 187.616 119.089C172.945 124.467 171.432 146.963 156.759 152.338C149.576 154.969 141.368 152.558 134.015 149.73C140.561 154.908 141.744 164.615 138.981 172.127C136.217 179.638 130.374 185.467 124.686 191.061C124.214 185.78 118.487 182.684 114.131 179.431C103.707 171.645 98.542 157.499 101.705 145.393C101.612 151.385 94.2488 154.528 88.2194 153.553C82.1899 152.577 76.79 149.036 70.8744 147.422C63.4338 145.392 55.2863 146.631 49.0683 150.737C54.0575 141.562 48.1213 127.929 55.3959 120.444C59.4883 116.233 66.5073 115.901 72.2364 118.049C77.2124 119.914 81.6685 123.09 84.7745 127.187C75.0057 121.537 72.8877 106 79.1429 97.2229Z" fill="#EED55B"/>
<path d="M137.115 133.698C137.29 134.781 137.511 134.717 138.876 135.565C142.136 137.591 146.202 139.293 149.743 140.704C154.666 142.668 159.641 143.322 164.505 141.423C164.872 141.279 164.598 140.753 164.236 140.868C159.414 142.41 154.855 141.376 150.182 139.403C147.017 138.067 140.884 135.813 138.507 133.064C139.926 132.409 141.331 131.735 142.724 131.047C148.011 136.271 162.073 143.478 167.242 136.401C167.277 136.353 167.218 136.287 167.164 136.31C158.691 140.019 150.842 135.855 143.936 130.454C145.187 129.829 146.432 129.199 147.679 128.572C153.158 134.875 163.361 136.733 170.177 132.394C170.506 132.184 170.139 131.709 169.808 131.829C161.806 134.729 155.274 133.554 148.755 128.034C150.046 127.387 151.341 126.744 152.643 126.12C157.283 131.078 165.601 131.806 171.038 128.602C171.201 128.506 171.088 128.251 170.904 128.325C164.842 130.751 159.172 129.298 154.082 125.45C154.539 125.237 154.994 125.018 155.455 124.81C160.756 126.186 165.965 126.355 171.15 124.803C171.476 124.705 171.287 124.144 170.955 124.226C166.527 125.322 161.848 125.325 157.416 123.946C161.141 122.358 164.991 120.995 169.107 120.088C169.419 120.019 169.32 119.6 169.011 119.61C164.589 119.757 160.347 120.815 156.239 122.306C157.665 120.801 159.145 119.46 161.092 118.442C163.419 117.226 165.948 116.744 168.521 116.214C168.651 116.188 168.648 115.987 168.504 115.975C163.207 115.561 157.119 118.702 154.298 123.044C153.77 123.254 153.25 123.485 152.726 123.706C153.068 121.397 153.859 119.219 155.205 117.296C156.731 115.114 158.798 113.918 160.766 112.225C160.852 112.152 160.784 111.985 160.661 112.011C155.344 113.14 152.148 119.163 151.492 124.226C150.228 124.779 148.979 125.358 147.736 125.943C148.792 119.224 153.134 113.862 158.85 110.243C158.991 110.153 158.831 109.907 158.682 109.987C153.467 112.762 145.694 119.662 146.52 126.516C145.136 127.176 143.771 127.837 142.411 128.49C142.36 120.945 147.512 114.276 153.185 109.908C153.401 109.742 153.124 109.428 152.904 109.576C148.793 112.349 145.342 115.584 143.272 120.154C142.062 122.823 140.63 126.041 141.196 129.067C139.793 129.733 138.379 130.375 136.956 130.997C136.564 127.038 137.16 123.79 139.133 120.072C141.39 115.819 144.428 112.29 148.396 109.528C148.778 109.262 148.293 108.71 147.914 108.959C142.324 112.632 132.129 123.611 135.536 131.608C134.08 132.219 132.606 132.79 131.111 133.311C131.192 123.75 135.699 115.107 143.576 109.703C143.96 109.44 143.476 108.888 143.095 109.135C134.644 114.607 129.799 123.636 129.847 133.741C129.27 133.929 128.69 134.107 128.105 134.274C127.808 134.359 127.448 134.458 127.047 134.565C126.365 131.248 126.315 128.326 127.478 124.722C129.278 119.14 132.645 114.368 136.815 110.344C137.087 110.081 136.7 109.611 136.414 109.87C131.342 114.46 121.817 126.664 125.264 135.009C124.084 135.286 122.713 135.569 121.283 135.796C121.13 129.607 122.675 124.294 127.046 119.676C127.199 119.514 126.99 119.243 126.806 119.391C122.019 123.243 119.089 129.546 119.856 135.862C119.835 135.906 119.822 135.956 119.809 136.005C115.445 136.542 110.889 136.363 109.428 133.704C109.317 133.502 109.175 133.336 109.013 133.202C109.309 132.657 109.568 132.106 109.813 131.553C109.824 131.551 109.837 131.553 109.848 131.549C109.929 131.526 110.006 131.492 110.087 131.465C110.264 131.454 110.41 131.402 110.518 131.314C114.352 129.814 117.204 125.563 118.186 121.786C118.234 121.603 117.965 121.429 117.859 121.615C116.785 123.498 115.486 125.349 113.909 126.842C112.94 127.759 111.829 128.435 110.722 129.127C111.226 127.52 111.556 125.889 111.717 124.234C117.814 122.517 122.001 116.632 122.762 110.535C122.812 110.135 122.135 109.969 122.047 110.369C120.727 116.393 117.021 120.066 111.824 122.5C111.869 121.141 111.824 119.771 111.689 118.388C118.366 114.417 123.843 108.251 123.362 99.9634C123.353 99.811 123.135 99.7814 123.118 99.9386C122.227 107.664 118.011 113.247 111.537 117.073C111.374 115.852 111.154 114.623 110.881 113.387C117.633 109.553 123.342 101.775 122.078 93.5537C122.066 93.4678 121.919 93.4459 121.902 93.5356C120.35 101.496 117.776 107.883 110.577 112.072C110.197 110.531 109.752 108.981 109.25 107.425C115.051 102.245 120.593 98.0366 119.985 89.1821C119.975 89.0316 119.744 88.9974 119.741 89.1573C119.531 97.3972 114.464 101.48 108.805 106.077C108.435 104.984 108.048 103.888 107.639 102.791C114.443 99.8959 118.117 92.2795 116.251 85.0113C116.235 84.9487 116.125 84.9422 116.13 85.0146C116.629 92.5649 113.617 98.0791 107.27 101.806C106.746 100.422 106.204 99.0382 105.651 97.6548C105.699 97.6334 105.749 97.6192 105.796 97.5818C111.228 93.228 113.626 86.469 111.971 79.504C111.916 79.2735 111.574 79.3274 111.612 79.5597C112.678 86.1512 110.335 92.4738 105.182 96.4819C104.705 95.294 104.225 94.1056 103.752 92.9204C103.867 92.8903 103.979 92.8387 104.073 92.7308C107.716 88.5057 108.896 82.8269 107.372 77.3043C107.247 76.8528 106.542 76.9533 106.652 77.4159C107.912 82.6682 106.657 87.7333 103.258 91.6798C102.709 90.2916 102.173 88.9064 101.664 87.5283C104.275 83.8203 104.485 77.2342 103.166 72.8596C103.126 72.7275 102.941 72.7253 102.924 72.8662C102.634 75.1601 103.037 77.5564 102.833 79.8803C102.633 82.1374 101.995 84.0571 101.126 86.0327C99.0961 80.3048 97.6236 74.6968 97.7456 69.3716C97.7551 68.9465 97.0928 68.8753 97.0736 69.3043C96.8355 74.6443 97.8921 79.9151 99.4807 85.1415C98.1408 83.8785 96.9069 82.595 95.9256 80.9349C94.6229 78.7343 94.0203 76.3446 93.4252 73.9155C93.393 73.7847 93.1898 73.7805 93.1834 73.9222C92.9762 78.6003 95.9607 84.2818 100.055 86.9567C100.553 88.4812 101.09 90.0006 101.645 91.5179C99.9961 90.4516 98.2597 89.5957 96.8218 88.0299C94.7648 85.7911 93.4527 83.0806 92.5676 80.2387C92.5326 80.1262 92.3747 80.1483 92.3879 80.2658C92.9217 84.9566 97.0285 92.2211 102.312 93.317C102.791 94.5965 103.278 95.8731 103.763 97.1492C98.3357 95.6211 94.1451 92.4392 92.4099 86.7582C92.3313 86.4988 91.9373 86.5477 91.9906 86.8232C93.0968 92.5848 98.1638 98.0423 104.29 98.5383C104.88 100.102 105.458 101.665 106.008 103.226C98.7958 102.952 92.8413 99.5894 90.6084 92.235C90.5184 91.9392 90.0501 91.9997 90.129 92.3094C91.9623 99.5193 98.7483 105.339 106.417 104.406C106.956 105.986 107.452 107.567 107.895 109.146C100.712 108.401 91.8547 104.932 89.0925 97.7399C88.9342 97.3286 88.3478 97.6042 88.4887 98.006C91.1881 105.734 100.459 109.59 108.012 110.553C108.108 110.565 108.189 110.553 108.267 110.534C108.787 112.558 109.194 114.582 109.454 116.607C99.7478 115.11 91.689 110.222 86.676 101.399C86.5002 101.09 86.0201 101.294 86.1817 101.617C90.6072 110.481 99.6417 117.312 109.624 118.191C109.758 119.736 109.783 121.283 109.705 122.83C98.9829 121.21 90.408 116.207 85.3891 106.011C85.3174 105.866 85.1165 105.963 85.1696 106.108C88.7727 115.847 98.9442 124.14 109.586 124.382C109.412 126.079 109.073 127.779 108.577 129.481C104.333 128.307 100.774 126.022 96.9722 123.668C92.979 121.196 89.0536 118.792 87.1329 114.312C87.0217 114.052 86.6571 114.226 86.7486 114.481C88.4358 119.158 92.2702 121.911 96.2996 124.639C99.9364 127.1 103.724 130.142 108.037 131.161C107.837 131.714 107.635 132.267 107.394 132.821C106.608 132.985 105.988 133.62 106.271 134.619L106.272 134.62C103.32 133.806 100.276 133 97.2052 132.3C96.8426 128.984 94.1832 126.115 91.2494 124.66C91.1851 124.629 91.1397 124.727 91.1957 124.766C93.8377 126.593 95.1438 128.927 96.1105 131.745C95.9028 131.715 95.6832 131.775 95.5407 131.917C94.4063 131.678 93.2687 131.455 92.1305 131.262C91.6919 127.517 88.1233 124.546 85.185 122.432C85.0199 122.313 84.8668 122.549 85.0157 122.676C87.9534 125.178 90.0441 127.635 90.9908 131.089C89.7473 130.899 88.5038 130.733 87.2638 130.622C84.5887 126.84 79.1579 124.569 74.8763 124.643C74.7218 124.646 74.7032 124.857 74.8621 124.884C77.581 125.357 80.2188 126.155 82.5508 127.729C83.7358 128.529 84.6825 129.497 85.5861 130.516C84.1228 130.433 82.6633 130.394 81.2204 130.461C79.0024 126.281 73.303 125.062 69.0493 124.79C68.8524 124.776 68.837 125.059 69.0317 125.09C71.357 125.457 73.6263 125.999 75.7676 127.057C77.5677 127.945 78.7695 129.114 79.9728 130.509C78.1613 130.657 76.2384 130.981 74.3399 131.497C71.2089 128.628 65.7319 127.811 62.103 129.486C62.0097 129.529 62.0577 129.673 62.1609 129.659C64.443 129.337 66.6197 129.154 68.9113 129.806C70.4575 130.246 71.7744 131.021 73.0836 131.87C71.8932 132.253 70.7241 132.709 69.6159 133.261C66.4118 132.43 62.2202 132.598 60.2751 135.107C60.2091 135.192 60.3327 135.282 60.4121 135.231C61.9693 134.217 63.7253 133.661 65.6359 133.704C66.4873 133.722 67.3165 133.885 68.1419 134.061C65.3603 135.741 63.1167 138.065 62.091 141.158C62.035 141.329 62.2573 141.419 62.3638 141.3C64.5654 138.85 66.8902 136.883 69.4094 135.398C68.4412 138.96 68.1199 141.965 64.1074 143.454C64.0498 143.476 64.0718 143.564 64.1307 143.569C68.5096 144.004 70.4608 138.348 70.5573 134.929C70.5585 134.875 70.547 134.826 70.5324 134.778C71.5083 134.27 72.5164 133.837 73.5546 133.467C73.2927 134.992 73.5441 136.654 73.1845 138.191C72.6274 140.567 71.2653 142.255 69.6069 143.967C69.5165 144.061 69.5742 144.277 69.7371 144.236C73.7045 143.222 75.9991 136.968 74.6786 133.111C76.4546 132.578 78.3291 132.24 80.3197 132.094C79.6158 137.108 78.5808 142.115 73.8404 144.861C73.6759 144.955 73.7906 145.208 73.9757 145.138C79.4708 143.09 81.0406 137.419 81.5897 132.028C82.6149 131.997 83.6673 132.009 84.7578 132.08C85.1167 132.104 85.4704 132.154 85.8277 132.186C86.6631 138.654 84.4723 143.888 78.278 146.546C78.1556 146.598 78.2201 146.808 78.3556 146.776C84.7198 145.264 89.0239 138.796 87.1307 132.315C87.1424 132.316 87.1535 132.318 87.1652 132.32C87.3504 132.529 87.5387 132.738 87.7315 132.945C88.0263 133.261 88.4905 132.962 88.3386 132.574C88.3269 132.545 88.3097 132.516 88.298 132.486C89.0891 132.602 89.8784 132.736 90.6645 132.884C91.0303 139.64 88.8971 143.848 82.767 147.11C82.6196 147.188 82.6874 147.418 82.8643 147.397C90.0876 146.546 92.1306 139.323 91.8869 133.131C93.1499 133.388 94.4076 133.676 95.6639 133.974C96.3996 139.865 93.2203 144.044 88.3717 147.255C88.2724 147.321 88.3613 147.495 88.4761 147.469C94.5418 146.14 97.4198 140.067 96.9564 134.285C100.398 135.117 103.834 135.988 107.322 136.536C107.434 136.661 107.556 136.776 107.68 136.889C107.618 137.039 107.586 137.21 107.628 137.421C107.969 139.07 108.647 140.547 109.535 141.91C107.12 142.86 106.265 145.266 105.847 147.727C105.234 151.337 105 155.729 106.121 159.336C106.15 159.43 106.297 159.44 106.302 159.33C106.555 154.017 104.983 146.11 110.1 142.715C110.932 143.846 111.896 144.906 112.936 145.921C106.791 148.97 107.496 157.887 107.719 163.796C107.726 163.984 108.032 164.094 108.077 163.879C109.365 157.574 107.743 150.768 113.762 146.707C114.775 147.649 115.831 148.565 116.868 149.482C111.694 153.235 110.061 161.416 111.993 167.382C112.029 167.493 112.188 167.472 112.173 167.355C111.715 163.863 111.783 160.399 112.982 157.121C114.013 154.304 115.762 152.33 117.545 150.087C118.748 151.164 119.91 152.254 120.927 153.406C118.297 155.33 116.268 157.904 115.292 161.05C114.769 162.737 113.615 166.997 115.115 168.471C115.202 168.557 115.346 168.597 115.443 168.509L115.576 168.389C115.643 168.328 115.624 168.218 115.533 168.182C114.053 167.592 116.232 161.205 116.734 160.123C117.844 157.729 119.508 155.8 121.642 154.26C122.561 155.414 123.347 156.607 124.026 157.828C118.445 160.599 116.089 167.589 117.279 173.539C117.318 173.736 117.597 173.684 117.58 173.493C116.973 167.088 119.888 162.533 124.536 158.801C125.155 160.034 125.683 161.29 126.091 162.574C121.765 164.683 119.034 171.592 119.919 176.227C119.957 176.424 120.235 176.37 120.218 176.181C120.016 173.798 121.24 170.752 122.149 168.61C123.089 166.397 124.484 164.832 126.368 163.486C126.638 164.455 126.86 165.433 127.025 166.423C123.837 169.078 120.296 176.966 124.055 180.686C124.143 180.773 124.285 180.717 124.267 180.592C123.888 177.916 123.318 175.988 124.181 173.347C124.816 171.406 126.069 169.875 127.024 168.165C127.108 168.347 127.195 168.528 127.288 168.705C127.559 171.8 127.393 174.956 126.841 178.104C126.768 178.519 127.419 178.635 127.557 178.27C128.373 176.1 128.808 173.794 128.92 171.449C129.35 172.192 129.731 172.968 129.965 173.836C130.549 176.008 130.207 177.894 130.142 180.033C130.14 180.126 130.27 180.218 130.345 180.14C132.959 177.428 131.447 171.478 128.882 168.335C128.784 166.989 128.584 165.642 128.291 164.313C131.658 166.84 133.947 170.086 133.749 174.496C133.73 174.925 134.371 174.984 134.421 174.564C134.95 170.098 132.523 164.628 127.938 162.89C127.491 161.253 126.898 159.656 126.18 158.129C130.282 160.295 135.971 162.852 136.074 168.186C136.079 168.417 136.422 168.458 136.441 168.224C136.836 163.189 130.653 157.363 125.781 156.949C125.716 156.943 125.655 156.958 125.598 156.98C125.149 156.138 124.652 155.33 124.124 154.546C125.86 154.652 127.518 154.659 129.343 155.38C131.796 156.35 133.235 158.216 135.387 159.558C135.452 159.598 135.546 159.552 135.528 159.471C134.538 155.246 127.248 151.879 122.966 152.937C122.045 151.729 121.047 150.577 120.017 149.447C122.4 149.547 124.657 149.584 127.049 150.242C128.351 150.598 129.658 151.013 130.79 151.8C131.887 152.563 132.371 153.602 133.228 154.548C133.287 154.613 133.374 154.575 133.389 154.501C133.835 152.182 130.984 150.447 129.102 149.618C126.067 148.282 122.148 147.644 118.966 148.313C118.385 147.694 117.796 147.078 117.208 146.462C118.812 146.265 120.402 146.008 122.061 146.105C124.532 146.249 126.474 147.152 128.748 148.035C128.838 148.07 128.899 147.964 128.845 147.894C126.222 144.417 120.149 144.479 116.107 145.303C115.338 144.49 114.582 143.664 113.842 142.828C115.13 142.945 116.457 142.871 117.738 143.019C119.595 143.235 121.416 143.643 123.216 144.189C123.557 144.293 123.722 143.82 123.388 143.68C120.33 142.404 115.925 140.76 112.644 141.414C112.641 141.414 112.639 141.416 112.636 141.417C111.799 140.406 110.996 139.368 110.267 138.271C112.418 138.918 114.993 138.889 117.012 138.875C118.198 138.866 119.372 138.772 120.54 138.641C121.744 140.287 124.05 141.594 125.449 142.551C127.746 144.123 130.525 146.331 133.327 145.182C133.439 145.136 133.442 144.935 133.308 144.902C130.638 144.256 128.57 142.831 126.417 141.154C125.268 140.259 123.986 139.355 122.995 138.285C124.181 138.074 125.358 137.829 126.521 137.524C126.561 137.622 126.619 137.716 126.713 137.8C133.423 143.754 145.021 151.199 154.219 149.517C154.638 149.441 154.633 148.734 154.163 148.738C144.335 148.841 135.835 142.519 127.948 137.132C129.085 136.8 130.212 136.439 131.324 136.039C133.963 140.812 140.304 142.958 145.159 144.544C150.232 146.201 155.576 147.703 160.432 145.278C160.711 145.139 160.508 144.733 160.217 144.835C152.311 147.579 137.953 142.494 132.545 135.593C132.562 135.587 132.579 135.581 132.595 135.575C134.13 134.999 135.632 134.361 137.115 133.698Z" fill="#E19292"/>
<path opacity="0.4" d="M118.097 142.382C114.306 146.812 106.552 146.061 101.893 142.117C97.2333 138.174 95.1172 132.062 94.0685 126.177C93.0156 120.268 93.0045 113.656 96.8126 109.205C100.62 104.755 109.368 104.592 112.007 110.062C113.535 113.23 112.582 117.032 114.012 120.24C116.162 125.067 122.343 126.348 127.519 127.456C132.695 128.565 138.874 131.475 139.035 136.666C139.232 142.972 130.856 144.976 124.489 145.058L118.097 142.382Z" fill="#EA7F69"/>
<path opacity="0.4" d="M110.335 142.287C102.579 137.23 99.9385 125.794 104.822 118.417C105.316 124.196 110.092 129.538 115.859 130.761C117.786 131.169 119.961 131.246 121.377 132.638C123.587 134.808 122.138 138.758 119.44 140.041C116.742 141.324 113.488 140.773 110.473 140.195L110.335 142.287Z" fill="#E2ED64"/>
<path d="M118.771 132.218C115.661 130.04 112.474 132.948 112.799 135.775C112.707 135.504 112.615 135.232 112.523 134.961C112.213 134.327 111.767 133.805 111.185 133.395L110.425 132.863C110.219 132.708 110.004 132.585 109.778 132.487C111.161 132.37 112.332 131.412 112.894 130.18C113.09 130.383 113.316 130.578 113.576 130.76C117.739 133.675 122.045 127.479 117.875 124.559C115.518 122.909 113.119 124.18 112.234 126.121C112.038 125.917 111.812 125.722 111.552 125.54C107.39 122.625 103.083 128.821 107.254 131.741C107.487 131.904 107.719 132.031 107.952 132.139C107.805 132.146 107.658 132.14 107.509 132.169C106.998 132.23 106.545 132.406 106.148 132.698C105.689 132.926 105.32 133.259 105.042 133.697C104.89 134 104.738 134.301 104.586 134.603C104.376 135.237 104.338 135.887 104.47 136.553C104.575 136.868 104.682 137.182 104.789 137.496C105.099 138.13 105.545 138.652 106.127 139.063L106.887 139.595C107.321 139.923 107.799 140.125 108.318 140.2C108.806 140.356 109.301 140.385 109.804 140.288C110.314 140.228 110.767 140.051 111.164 139.759C111.623 139.532 111.992 139.199 112.271 138.759L112.727 137.854C112.915 137.286 112.958 136.705 112.871 136.109C113.054 136.949 113.543 137.765 114.474 138.417C118.635 141.333 122.941 135.137 118.771 132.218Z" fill="#95500B"/>
<path d="M35.1894 107.994C37.2531 103.008 41.2979 98.6074 41.3164 93.1699C41.329 89.3741 39.3411 85.8114 38.2879 82.1194C36.1371 74.5835 38.139 66.1882 43.4276 60.5604C43.0004 67.3931 49.6979 72.9113 56.3112 75.5629C62.9241 78.2155 70.322 79.4409 75.8789 83.8717C81.6392 88.4659 84.4008 95.8577 84.8019 102.972C85.2019 110.087 83.5306 117.069 81.8701 123.941C83.7237 110.878 92.4296 96.9637 106.062 96.6249C119.802 96.284 133.219 109.889 145.801 104.899C132.716 113.439 136.302 135.699 123.215 144.237C116.808 148.417 108.268 147.914 100.467 146.812C108.01 150.385 111.345 159.577 110.343 167.518C109.34 175.458 104.958 182.453 100.674 189.182C99.0262 184.143 92.7496 182.414 87.7736 180.224C75.865 174.984 67.6503 162.361 68.0094 149.854C69.2667 155.714 62.7989 160.432 56.7046 160.839C50.6103 161.245 44.5521 159.009 38.4251 158.767C30.7186 158.463 23.0586 161.503 17.9236 166.902C20.721 156.84 11.8703 144.892 17.2745 135.962C20.3148 130.938 27.0793 129.036 33.1447 129.84C38.4128 130.538 43.469 132.63 47.417 135.923C36.6278 132.616 31.0689 117.954 35.1894 107.994Z" fill="#EE695B"/>
<path d="M99.8811 130.493C100.296 131.509 100.497 131.397 102.017 131.917C105.649 133.157 109.993 133.901 113.761 134.48C119 135.286 123.994 134.803 128.307 131.859C128.632 131.636 128.247 131.186 127.92 131.379C123.569 133.966 118.893 133.984 113.896 133.113C110.512 132.523 104.03 131.706 101.095 129.563C102.33 128.606 103.547 127.633 104.75 126.649C111.077 130.549 126.399 134.408 129.844 126.35C129.868 126.295 129.795 126.244 129.748 126.279C122.326 131.799 113.742 129.507 105.797 125.798C106.875 124.907 107.948 124.013 109.021 123.122C115.778 128.032 126.137 127.547 131.802 121.786C132.076 121.507 131.611 121.126 131.315 121.318C124.171 125.944 117.542 126.269 109.948 122.356C111.061 121.436 112.178 120.518 113.306 119.617C118.942 123.404 127.212 122.242 131.788 117.897C131.925 117.767 131.758 117.544 131.595 117.657C126.234 121.385 120.383 121.244 114.558 118.64C114.955 118.329 115.349 118.014 115.751 117.708C121.226 117.856 126.339 116.849 131.042 114.17C131.338 114.001 131.028 113.497 130.723 113.652C126.655 115.716 122.097 116.772 117.468 116.425C120.74 114.039 124.185 111.845 127.992 110.036C128.28 109.899 128.089 109.512 127.79 109.592C123.514 110.729 119.62 112.715 115.952 115.091C117.003 113.304 118.144 111.664 119.811 110.235C121.805 108.526 124.161 107.488 126.549 106.393C126.67 106.338 126.622 106.143 126.478 106.164C121.225 106.952 115.999 111.382 114.227 116.248C113.76 116.571 113.305 116.913 112.845 117.246C112.658 114.919 112.939 112.619 113.817 110.442C114.814 107.973 116.559 106.343 118.095 104.251C118.163 104.16 118.059 104.013 117.945 104.066C113.018 106.361 111.259 112.949 111.759 118.03C110.652 118.853 109.565 119.698 108.485 120.548C108.003 113.764 111.028 107.562 115.782 102.751C115.9 102.631 115.689 102.427 115.561 102.538C111.105 106.416 105.083 114.887 107.43 121.379C106.23 122.334 105.048 123.286 103.87 124.228C102.123 116.887 105.642 109.231 110.188 103.698C110.36 103.488 110.02 103.245 109.84 103.438C106.457 107.064 103.823 110.993 102.833 115.912C102.255 118.784 101.583 122.242 102.816 125.063C101.598 126.028 100.365 126.971 99.1191 127.898C97.846 124.128 97.6965 120.829 98.7825 116.763C100.024 112.112 102.191 107.989 105.435 104.405C105.748 104.06 105.152 103.632 104.839 103.959C100.218 108.795 92.754 121.787 97.8727 128.812C96.5916 129.735 95.2836 130.623 93.9439 131.467C91.8718 122.132 94.3192 112.698 100.779 105.66C101.093 105.317 100.498 104.889 100.182 105.214C93.1785 112.447 90.4892 122.335 92.8091 132.171C92.2886 132.483 91.7638 132.787 91.2317 133.082C90.9612 133.231 90.6329 133.409 90.2658 133.603C88.8556 130.524 88.1494 127.689 88.4717 123.915C88.9706 118.072 91.1769 112.664 94.3352 107.806C94.5415 107.488 94.0585 107.117 93.8376 107.434C89.9288 113.047 83.3924 127.081 88.6291 134.437C87.5414 134.972 86.2695 135.556 84.9263 136.099C83.3859 130.103 83.6962 124.579 86.9159 119.096C87.0288 118.904 86.7642 118.687 86.6177 118.873C82.8201 123.703 81.3828 130.503 83.551 136.484C83.5404 136.532 83.5389 136.583 83.5374 136.634C79.406 138.139 74.9271 138.99 72.9045 136.727C72.7518 136.556 72.5761 136.426 72.3875 136.332C72.5533 135.734 72.6818 135.139 72.7959 134.546C72.8067 134.54 72.8195 134.54 72.8297 134.533C72.9034 134.492 72.971 134.442 73.0433 134.398C73.2135 134.347 73.3442 134.264 73.4294 134.153C76.8278 131.83 78.6507 127.046 78.7577 123.145C78.7631 122.955 78.4616 122.847 78.4001 123.052C77.7774 125.128 76.9282 127.224 75.7274 129.033C74.9896 130.145 74.0592 131.053 73.1366 131.976C73.2661 130.297 73.2208 128.634 73.0047 126.985C78.559 123.941 81.3159 117.265 80.6852 111.153C80.6437 110.752 79.9469 110.742 79.9512 111.151C80.0202 117.319 77.235 121.731 72.7196 125.271C72.4569 123.937 72.1053 122.613 71.6622 121.295C77.2756 115.924 81.2244 108.684 78.8919 100.717C78.8491 100.571 78.6299 100.591 78.6485 100.748C79.5187 108.475 76.6664 114.864 71.2186 120.048C70.785 118.895 70.2942 117.748 69.7503 116.605C75.4674 111.35 79.2797 102.487 76.1992 94.7605C76.1677 94.6797 76.0193 94.6915 76.023 94.7826C76.3015 102.888 75.2307 109.69 69.1584 115.391C68.4412 113.975 67.659 112.565 66.8203 111.162C71.307 104.81 75.7604 99.4627 73.1758 90.972C73.1321 90.8276 72.8999 90.8462 72.9324 91.0028C74.5819 99.0786 70.5635 104.196 66.0835 109.949C65.4766 108.967 64.8529 107.987 64.2083 107.009C70.186 102.658 72.0528 94.4101 68.5994 87.748C68.5698 87.6906 68.4613 87.709 68.4824 87.7784C70.6668 95.023 68.9724 101.073 63.6271 106.132C62.8046 104.902 61.9653 103.675 61.1151 102.452C61.1577 102.42 61.2027 102.395 61.2401 102.348C65.5542 96.8839 66.3702 89.7588 63.1902 83.3447C63.085 83.1324 62.7635 83.2619 62.8528 83.4797C65.3742 89.6624 64.514 96.35 60.3943 101.415C59.6623 100.364 58.9278 99.3144 58.2001 98.266C58.3059 98.2107 58.4034 98.1353 58.4699 98.0091C61.0694 93.0728 60.9421 87.2739 58.2144 82.2358C57.9913 81.824 57.3269 82.0805 57.5381 82.5066C59.9474 87.3407 59.8641 92.5583 57.4396 97.1684C56.5929 95.9391 55.7585 94.7101 54.9527 93.4818C56.663 89.2814 55.3856 82.817 53.1162 78.8512C53.0477 78.7315 52.8671 78.7709 52.8821 78.912C53.1158 81.2124 54.0477 83.4565 54.3711 85.7669C54.6846 88.011 54.494 90.0252 54.0924 92.1455C50.8257 87.0211 48.1295 81.888 47.0504 76.6719C46.964 76.2556 46.3027 76.3351 46.3805 76.7575C47.3497 82.0142 49.5649 86.9122 52.2884 91.6473C50.6988 90.7181 49.2078 89.7451 47.8783 88.3482C46.1139 86.4971 44.9891 84.3042 43.8629 82.0713C43.8021 81.9511 43.6031 81.9926 43.6288 82.1321C44.4792 86.737 48.6653 91.6015 53.2565 93.2867C54.0845 94.6603 54.9492 96.0199 55.8313 97.3735C53.9852 96.7053 52.1007 96.262 50.3475 95.0598C47.8395 93.3411 45.9513 90.9952 44.4497 88.4253C44.3903 88.3236 44.2414 88.3806 44.2807 88.4921C45.856 92.9426 51.4917 99.0971 56.8864 98.9763C57.6404 100.115 58.4026 101.25 59.1622 102.384C53.5302 102.116 48.7313 99.9582 45.7625 94.8132C45.6276 94.5781 45.2548 94.7144 45.3687 94.9709C47.7425 100.336 53.9074 104.514 59.9879 103.619C60.9151 105.01 61.8291 106.403 62.7162 107.8C55.6276 109.156 49.0693 107.218 45.2393 100.555C45.085 100.287 44.6423 100.451 44.7889 100.735C48.197 107.348 56.1182 111.492 63.3803 108.858C64.2614 110.276 65.1 111.705 65.8868 113.144C58.7202 114.034 49.3097 112.646 45.0005 106.26C44.7538 105.895 44.2444 106.295 44.4721 106.655C48.8408 113.578 58.7418 115.249 66.3177 114.489C66.4142 114.479 66.49 114.448 66.5616 114.413C67.5239 116.267 68.3758 118.148 69.0843 120.062C59.2901 120.788 50.3384 117.838 43.4691 110.369C43.2284 110.107 42.8064 110.414 43.0365 110.692C49.3426 118.334 59.6821 122.957 69.606 121.568C70.0848 123.043 70.4571 124.545 70.7286 126.07C59.917 126.903 50.4365 123.957 43.2527 115.152C43.1502 115.027 42.9762 115.166 43.0606 115.296C48.7621 123.974 60.5384 129.767 70.9622 127.609C71.1745 129.302 71.2259 131.035 71.1263 132.805C66.7261 132.615 62.7447 131.189 58.5109 129.751C54.0638 128.24 49.6984 126.781 46.819 122.847C46.6524 122.62 46.3361 122.871 46.4827 123.099C49.1787 127.277 53.534 129.096 58.0738 130.848C62.171 132.428 66.546 134.54 70.9776 134.563C70.9073 135.147 70.8345 135.731 70.724 136.325C69.9951 136.661 69.5342 137.42 70.0351 138.329L70.0358 138.33C66.9766 138.201 63.829 138.1 60.6798 138.109C59.5804 134.96 56.3438 132.762 53.1579 132.005C53.0882 131.989 53.066 132.094 53.1295 132.12C56.1147 133.306 57.9124 135.286 59.4881 137.815C59.2789 137.832 59.0785 137.94 58.9717 138.11C57.8125 138.132 56.654 138.171 55.5015 138.239C54.2318 134.689 50.0863 132.597 46.7476 131.198C46.5602 131.12 46.4639 131.383 46.6376 131.474C50.0629 133.251 52.6527 135.175 54.3521 138.327C53.0977 138.421 51.8488 138.54 50.6155 138.71C47.1583 135.627 41.3559 134.636 37.2007 135.672C37.0508 135.709 37.0799 135.918 37.241 135.909C39.9967 135.759 42.7464 135.943 45.3726 136.951C46.7072 137.464 47.8474 138.195 48.957 138.984C47.5126 139.233 46.0816 139.523 44.6908 139.913C41.5893 136.339 35.7617 136.433 31.5559 137.125C31.3611 137.156 31.4097 137.435 31.6063 137.422C33.9546 137.256 36.2876 137.273 38.612 137.823C40.5658 138.283 41.9997 139.152 43.486 140.24C41.7543 140.792 39.9535 141.54 38.2198 142.471C34.5236 140.379 29.0033 140.815 25.844 143.263C25.7628 143.326 25.8421 143.456 25.9394 143.419C28.0905 142.591 30.1704 141.924 32.5499 142.044C34.1554 142.125 35.6128 142.583 37.0794 143.116C36.0057 143.757 34.9692 144.464 34.0135 145.251C30.7047 145.163 26.6584 146.269 25.3275 149.151C25.2823 149.249 25.4231 149.309 25.4889 149.241C26.778 147.903 28.3641 146.967 30.2353 146.579C31.069 146.405 31.9135 146.377 32.7574 146.363C30.425 148.626 28.7618 151.395 28.4581 154.639C28.4418 154.818 28.6789 154.856 28.7559 154.716C30.3497 151.833 32.1725 149.394 34.2931 147.38C34.1509 151.068 34.514 154.069 30.9391 156.422C30.888 156.457 30.9293 156.538 30.9877 156.529C35.3524 155.968 35.9812 150.018 35.3062 146.665C35.2951 146.612 35.2729 146.567 35.2478 146.523C36.0846 145.809 36.9693 145.16 37.8978 144.567C37.9856 146.111 38.6044 147.674 38.5998 149.253C38.5915 151.693 37.644 153.644 36.4132 155.685C36.3463 155.797 36.4511 155.995 36.6005 155.918C40.2381 154.037 41.0672 147.428 38.9128 143.966C40.5233 143.047 42.2739 142.297 44.1806 141.707C44.6226 146.75 44.7404 151.862 40.7392 155.604C40.6003 155.733 40.7688 155.953 40.9335 155.844C45.8269 152.611 46.081 146.734 45.4032 141.357C46.3952 141.096 47.4232 140.871 48.5017 140.694C48.8568 140.637 49.2126 140.606 49.5681 140.557C51.837 146.671 50.8797 152.264 45.4421 156.247C45.3346 156.326 45.4449 156.516 45.5695 156.454C51.4305 153.549 54.1694 146.279 50.8667 140.39C50.8784 140.388 50.8897 140.388 50.9015 140.387C51.129 140.549 51.3595 140.711 51.5939 140.869C51.9523 141.11 52.3373 140.715 52.1021 140.371C52.0839 140.345 52.0608 140.321 52.0426 140.294C52.8395 140.229 53.6388 140.182 54.4379 140.149C56.3141 146.65 55.1821 151.23 49.9429 155.787C49.8169 155.896 49.9347 156.105 50.1024 156.045C56.9491 153.591 57.3151 146.094 55.6845 140.115C56.9731 140.082 58.2633 140.079 59.5544 140.087C61.5964 145.661 59.4386 150.448 55.4368 154.668C55.3548 154.755 55.4804 154.904 55.5866 154.853C61.1978 152.193 62.6359 145.629 60.8837 140.099C64.4244 140.135 67.9681 140.211 71.4898 139.96C71.6271 140.058 71.772 140.142 71.918 140.224C71.8916 140.384 71.8986 140.558 71.9877 140.754C72.6909 142.284 73.6837 143.57 74.8554 144.699C72.7157 146.168 72.4242 148.705 72.5703 151.197C72.7851 154.852 73.5454 159.185 75.4484 162.446C75.4983 162.531 75.6435 162.508 75.6242 162.4C74.6748 157.166 71.3645 149.816 75.5863 145.357C76.6521 146.271 77.8299 147.087 79.0717 147.842C73.7699 152.196 76.4627 160.725 78.0093 166.433C78.0582 166.614 78.3814 166.653 78.3765 166.433C78.2133 160 75.102 153.734 80.0532 148.423C81.2522 149.113 82.4868 149.767 83.7039 150.427C79.5066 155.248 79.7559 163.586 82.9801 168.965C83.0399 169.066 83.1909 169.01 83.1491 168.898C81.918 165.599 81.2045 162.208 81.6358 158.744C82.0061 155.769 83.2669 153.451 84.499 150.865C85.9135 151.644 87.2909 152.444 88.5412 153.338C86.4116 155.804 85.0139 158.769 84.7705 162.053C84.6403 163.815 84.4743 168.225 86.2671 169.325C86.3716 169.388 86.5202 169.395 86.5954 169.287L86.6975 169.141C86.7497 169.066 86.7061 168.963 86.6093 168.949C85.0342 168.707 85.7211 161.994 85.9668 160.825C86.5099 158.243 87.6968 155.99 89.4304 154.01C90.5851 154.927 91.6188 155.912 92.5558 156.95C87.7414 160.905 87.0181 168.246 89.5161 173.776C89.5982 173.958 89.8583 173.845 89.7985 173.663C87.7668 167.558 89.5822 162.464 93.2718 157.783C94.1514 158.845 94.9488 159.95 95.6351 161.109C91.8947 164.137 90.7882 171.484 92.6928 175.801C92.7745 175.984 93.0329 175.869 92.9737 175.688C92.2407 173.412 92.7487 170.169 93.1523 167.877C93.5703 165.509 94.5778 163.671 96.1101 161.936C96.5913 162.819 97.0283 163.722 97.4108 164.649C94.9023 167.953 93.2266 176.436 97.7254 179.215C97.8306 179.28 97.9563 179.193 97.9108 179.076C96.9396 176.554 95.9509 174.803 96.1981 172.036C96.3794 170.001 97.256 168.229 97.8021 166.347C97.9251 166.506 98.05 166.663 98.1809 166.814C99.1407 169.768 99.689 172.881 99.8596 176.073C99.882 176.493 100.542 176.46 100.594 176.073C100.902 173.775 100.807 171.43 100.388 169.12C100.974 169.747 101.52 170.418 101.943 171.212C103.001 173.196 103.092 175.111 103.51 177.21C103.529 177.301 103.676 177.361 103.732 177.268C105.669 174.038 102.857 168.58 99.6505 166.095C99.2525 164.805 98.7546 163.537 98.17 162.309C102.019 164.013 104.98 166.661 105.779 171.003C105.857 171.425 106.495 171.338 106.449 170.918C105.96 166.447 102.365 161.664 97.5056 161.001C96.7019 159.507 95.7648 158.085 94.722 156.758C99.2067 157.946 105.325 159.158 106.625 164.332C106.682 164.556 107.025 164.519 106.991 164.286C106.243 159.291 98.9085 155.005 94.0678 155.698C94.0028 155.707 93.9469 155.735 93.8968 155.77C93.2692 155.05 92.604 154.375 91.9129 153.73C93.6278 153.442 95.2454 153.076 97.1862 153.368C99.7942 153.761 101.616 155.256 104.014 156.079C104.087 156.104 104.168 156.038 104.132 155.963C102.217 152.069 94.3568 150.428 90.4228 152.422C89.2529 151.452 88.0218 150.554 86.7643 149.685C89.1089 149.246 91.3155 148.775 93.7944 148.877C95.143 148.932 96.5106 149.042 97.7905 149.555C99.0306 150.051 99.7361 150.954 100.783 151.683C100.856 151.734 100.932 151.677 100.93 151.601C100.843 149.242 97.675 148.193 95.6547 147.808C92.3973 147.189 88.4351 147.449 85.4851 148.817C84.7792 148.344 84.0671 147.877 83.3555 147.409C84.874 146.855 86.3653 146.248 88.0042 145.969C90.4435 145.553 92.5394 145.996 94.9533 146.346C95.049 146.359 95.0845 146.242 95.0169 146.186C91.6786 143.388 85.7747 144.815 82.0218 146.527C81.0895 145.907 80.168 145.273 79.2584 144.625C80.5401 144.449 81.8158 144.078 83.0972 143.935C84.9553 143.727 86.8212 143.715 88.6981 143.842C89.0544 143.867 89.1081 143.368 88.7512 143.308C85.4849 142.752 80.823 142.141 77.7727 143.516C77.7697 143.517 77.7689 143.519 77.7655 143.522C76.7231 142.724 75.7073 141.894 74.7499 140.989C76.9913 141.136 79.4934 140.528 81.4575 140.06C82.6115 139.785 83.734 139.429 84.8427 139.039C86.3864 140.371 88.9274 141.126 90.5052 141.744C93.0975 142.759 96.3017 144.285 98.7731 142.535C98.8722 142.465 98.8294 142.268 98.6915 142.266C95.9448 142.238 93.6094 141.314 91.1344 140.165C89.8138 139.551 88.3611 138.958 87.1546 138.14C88.2626 137.667 89.355 137.164 90.4197 136.605C90.4805 136.69 90.5577 136.769 90.6685 136.83C98.5456 141.122 111.521 145.768 120.105 142.06C120.496 141.891 120.332 141.203 119.876 141.313C110.323 143.624 100.618 139.376 91.7217 135.902C92.7548 135.322 93.7718 134.717 94.7648 134.078C98.4097 138.134 105.072 138.799 110.159 139.252C115.474 139.726 121.019 139.986 125.206 136.532C125.446 136.333 125.157 135.983 124.896 136.148C117.81 140.6 102.676 138.875 95.8547 133.368C95.8697 133.358 95.8847 133.349 95.8987 133.339C97.2655 132.432 98.5847 131.473 99.8811 130.493Z" fill="#FFBC9F"/>
<path opacity="0.4" d="M83.3039 143.233C80.6065 148.403 72.883 149.414 67.4557 146.62C62.0285 143.826 58.5919 138.347 56.2462 132.849C53.891 127.328 52.3928 120.888 55.1022 115.694C57.8111 110.502 66.2979 108.375 70.1001 113.112C72.3012 115.854 72.2284 119.773 74.3425 122.577C77.5239 126.797 83.834 126.655 89.1268 126.57C94.4195 126.486 101.095 127.931 102.42 132.954C104.03 139.053 96.3198 142.891 90.1344 144.403L83.3039 143.233Z" fill="#EA7569"/>
<path opacity="0.4" d="M75.7193 144.886C67.0253 141.704 61.8794 131.155 64.9785 122.868C66.7596 128.388 72.6149 132.518 78.5094 132.413C80.4785 132.378 82.6152 131.963 84.3077 133.001C86.9497 134.618 86.4262 138.793 84.0858 140.65C81.7454 142.507 78.4512 142.702 75.3834 142.817L75.7193 144.886Z" fill="#ED7564"/>
<path d="M81.6751 133.178C78.1546 131.755 75.7038 135.306 76.6562 137.988C76.506 137.744 76.3547 137.5 76.2044 137.257C75.7595 136.709 75.2077 136.3 74.5479 136.031L73.6882 135.684C73.4526 135.579 73.2148 135.508 72.973 135.463C74.2942 135.038 75.2198 133.841 75.49 132.514C75.727 132.668 75.9914 132.808 76.2851 132.926C80.9967 134.83 83.7988 127.824 79.0786 125.917C76.4113 124.84 74.3599 126.617 73.9341 128.708C73.697 128.553 73.4327 128.414 73.139 128.295C68.4274 126.392 65.6253 133.397 70.3455 135.304C70.6091 135.411 70.8644 135.482 71.1154 135.535C70.9735 135.575 70.8288 135.602 70.6907 135.664C70.2066 135.838 69.805 136.112 69.4838 136.485C69.0879 136.811 68.8032 137.218 68.6304 137.708C68.5506 138.037 68.4701 138.364 68.3903 138.693C68.3277 139.358 68.4367 140 68.7156 140.619C68.889 140.902 69.0638 141.184 69.2386 141.467C69.6835 142.015 70.2354 142.423 70.8952 142.692L71.7548 143.039C72.2521 143.262 72.7625 143.351 73.2857 143.307C73.7959 143.35 74.2851 143.266 74.7528 143.058C75.2364 142.886 75.638 142.611 75.9597 142.237C76.3551 141.912 76.6399 141.505 76.813 141.014L77.0532 140.029C77.1094 139.434 77.0205 138.857 76.8018 138.297C77.1691 139.074 77.8291 139.759 78.8825 140.185C83.5932 142.09 86.3942 135.084 81.6751 133.178Z" fill="#953C0B"/>
</svg>
